#N canvas 707 354 450 300 12;
#X obj 132 45 inlet;
#X obj 132 181 line~;
#X obj 132 209 outlet~;
#X obj 132 104 expr \$1 + \$2;
#X obj 132 129 delay;
#X obj 132 153 list 0 \$3;
#X obj 237 130 list 1 \$1;
#X obj 132 73 t b b;
#X msg 246 92 stop;
#X connect 0 0 7 0;
#X connect 1 0 2 0;
#X connect 3 0 4 0;
#X connect 4 0 5 0;
#X connect 5 0 1 0;
#X connect 6 0 1 0;
#X connect 7 0 3 0;
#X connect 7 1 6 0;
#X connect 7 1 8 0;
#X connect 8 0 4 0;
