#N canvas 584 88 582 778 12;
#X obj 143 96 + 1;
#X obj 143 261 tabread bullet;
#X obj 143 288 sel 0;
#X obj 143 362 / 10;
#X obj 143 338 - 30;
#X obj 143 412 +;
#X obj 143 462 pentamap;
#X obj 143 510 mtof;
#X obj 143 589 *~;
#X obj 143 436 t f b;
#X obj 143 46 inlet;
#X obj 143 537 tabosc4~ wave;
#X obj 143 486 expr $i1 + rootnote + 12;
#X obj 143 386 t f f;
#X obj 143 561 *~;
#X obj 313 191 for 6;
#X obj 313 215 + 3;
#X obj 313 263 * 10;
#X obj 313 287 +;
#X obj 143 120 t f b f;
#X obj 313 310 tabread enepos;
#X obj 313 334 sel 1;
#X obj 313 358 int;
#X obj 313 239 t f f b;
#X msg 445 281 9, f 1;
#X obj 200 385 - 3;
#X obj 120 675 *~;
#X obj 167 676 *~;
#X obj 143 312 t f f;
#X obj 257 613 LP_PAN;
#X obj 257 588 +;
#X obj 143 71 t f f f;
#X obj 290 441 expr 0.9 - pow($f2 - $f1 - 3 \, 2) / 30;
#X obj 119 706 throw~ bulletmusicl;
#X obj 166 734 throw~ bulletmusicr;
#X obj 352 359 s bs-break;
#X obj 358 168 r bs-break;
#X floatatom 94 450 5 0 0 0 - - - 0;
#X obj 290 546 ahr~ 5 0 100;
#X connect 0 0 19 0;
#X connect 1 0 2 0;
#X connect 2 1 28 0;
#X connect 3 0 13 0;
#X connect 4 0 3 0;
#X connect 5 0 9 0;
#X connect 5 0 37 0;
#X connect 6 0 12 0;
#X connect 7 0 11 0;
#X connect 8 0 26 0;
#X connect 8 0 27 0;
#X connect 9 0 6 0;
#X connect 9 1 38 0;
#X connect 10 0 31 0;
#X connect 11 0 14 0;
#X connect 12 0 7 0;
#X connect 13 0 5 0;
#X connect 13 1 32 0;
#X connect 14 0 8 0;
#X connect 15 0 16 0;
#X connect 16 0 23 0;
#X connect 17 0 18 0;
#X connect 18 0 20 0;
#X connect 19 0 1 0;
#X connect 19 1 15 0;
#X connect 19 2 18 1;
#X connect 20 0 21 0;
#X connect 21 0 22 0;
#X connect 21 0 35 0;
#X connect 22 0 32 1;
#X connect 23 0 17 0;
#X connect 23 1 22 1;
#X connect 23 2 24 0;
#X connect 24 0 32 1;
#X connect 25 0 5 1;
#X connect 26 0 33 0;
#X connect 27 0 34 0;
#X connect 28 0 4 0;
#X connect 28 1 30 0;
#X connect 29 0 26 1;
#X connect 29 1 27 1;
#X connect 30 0 29 0;
#X connect 31 0 0 0;
#X connect 31 1 25 0;
#X connect 31 2 30 1;
#X connect 32 0 14 1;
#X connect 36 0 15 1;
#X connect 38 0 8 1;
