#N canvas 156 156 352 300 12;
#X obj 96 12 inlet;
#X obj 136 111 for;
#X obj 136 185 ==;
#X obj 136 209 sel 1;
#X obj 136 159 tabread snakepos;
#X obj 136 86 - 1;
#X obj 136 135 + 1;
#X obj 136 62 v snakelen;
#X obj 70 98 int;
#X obj 96 36 t b b b f;
#X obj 70 122 outlet;
#X msg 104 73 0, f 1;
#X msg 136 233 1, f 1;
#X connect 0 0 9 0;
#X connect 1 0 6 0;
#X connect 2 0 3 0;
#X connect 3 0 1 1;
#X connect 3 0 12 0;
#X connect 4 0 2 0;
#X connect 5 0 1 0;
#X connect 6 0 4 0;
#X connect 7 0 5 0;
#X connect 8 0 10 0;
#X connect 9 0 8 0;
#X connect 9 1 7 0;
#X connect 9 2 11 0;
#X connect 9 3 2 1;
#X connect 11 0 8 1;
#X connect 12 0 8 1;
