#N canvas 817 372 450 300 12;
#X obj 136 129 int;
#X obj 167 129 + 1;
#X obj 136 154 outlet;
#X obj 166 84 inlet;
#X msg 166 105 0;
#X obj 123 84 inlet;
#X text 211 83 reset;
#X text 77 62 increase & output;
#X connect 0 0 1 0;
#X connect 0 0 2 0;
#X connect 1 0 0 1;
#X connect 3 0 4 0;
#X connect 4 0 0 1;
#X connect 5 0 0 0;
