#N canvas 471 107 520 452 12;
#X obj 148 21 inlet;
#X obj 280 317 *~;
#X obj 232 273 osc~;
#X obj 232 150 pentamap;
#X obj 232 224 line~;
#X obj 232 248 mtof~;
#X msg 232 198 \$1 5;
#X obj 155 75 t f b;
#X obj 116 50 unpack;
#X obj 127 405 throw~ enemusicl;
#X obj 127 373 *~;
#X obj 250 376 *~;
#X obj 249 404 throw~ enemusicr;
#X obj 116 216 LP_PAN;
#X obj 232 174 expr $i1 + rootnote;
#X obj 373 243 ahr~ 10 0 800;
#X connect 0 0 8 0;
#X connect 1 0 10 0;
#X connect 1 0 11 0;
#X connect 2 0 1 0;
#X connect 3 0 14 0;
#X connect 4 0 5 0;
#X connect 5 0 2 0;
#X connect 6 0 4 0;
#X connect 7 0 3 0;
#X connect 7 1 15 0;
#X connect 8 0 13 0;
#X connect 8 1 7 0;
#X connect 10 0 9 0;
#X connect 11 0 12 0;
#X connect 13 0 10 1;
#X connect 13 1 11 1;
#X connect 14 0 6 0;
#X connect 15 0 1 1;
