#N canvas 585 398 341 246 12;
#X obj 64 133 until;
#X obj 64 157 counter;
#X obj 64 181 outlet;
#X obj 64 110 int \$1;
#X obj 64 87 t b b;
#X obj 126 114 inlet;
#X obj 64 35 route bang;
#X obj 71 62 t b f;
#X obj 64 9 inlet;
#X connect 0 0 1 0;
#X connect 1 0 2 0;
#X connect 3 0 0 0;
#X connect 4 0 3 0;
#X connect 4 1 1 1;
#X connect 5 0 0 1;
#X connect 6 0 4 0;
#X connect 6 1 7 0;
#X connect 7 0 4 0;
#X connect 7 1 3 1;
#X connect 8 0 6 0;
