#N canvas 535 422 634 334 12;
#X obj 108 55 inlet;
#X obj 108 79 t f f;
#X obj 153 106 mod 10;
#X obj 96 106 / 10;
#X obj 96 130 int;
#X obj 244 55 inlet;
#X obj 244 79 t f f;
#X obj 289 106 mod 10;
#X obj 232 106 / 10;
#X obj 232 130 int;
#X obj 105 248 +;
#X obj 105 272 outlet;
#X obj 153 171 expr min(min(abs($i1 - $i2) \, $i2 + 8 - $i1) \, $i1
+ 8 - $i2);
#X obj 96 207 expr min(min(abs($i1 - $i2) \, $i2 + 8 - $i1) \, $i1
+ 8 - $i2);
#X connect 0 0 1 0;
#X connect 1 0 3 0;
#X connect 1 1 2 0;
#X connect 2 0 12 0;
#X connect 3 0 4 0;
#X connect 4 0 13 0;
#X connect 5 0 6 0;
#X connect 6 0 8 0;
#X connect 6 1 7 0;
#X connect 7 0 12 1;
#X connect 8 0 9 0;
#X connect 9 0 13 1;
#X connect 10 0 11 0;
#X connect 12 0 10 1;
#X connect 13 0 10 0;
