#N canvas 1311 88 490 339 12;
#X obj 91 63 mod 10;
#X obj 91 87 / 10;
#X obj 122 29 t f f;
#X obj 182 50 / 10;
#X obj 182 74 int;
#X obj 182 98 / 10;
#X obj 91 185 expr 1.3 - sqrt(pow($f1 - 0.65 \, 2) + pow($f2 - 0.45
\, 2)) * 2;
#X obj 22 145 expr 1.3 - sqrt(pow($f1 - 0.25 \, 2) + pow($f2 - 0.45
\, 2)) * 2;
#X obj 91 209 clip 0 1;
#X obj 22 169 clip 0 1;
#X obj 122 4 inlet;
#X msg 22 193 \$1 5;
#X obj 22 217 line~;
#X obj 22 241 outlet~;
#X msg 91 233 \$1 5;
#X obj 91 257 line~;
#X obj 91 281 outlet~;
#X connect 0 0 1 0;
#X connect 1 0 6 0;
#X connect 1 0 7 0;
#X connect 2 0 0 0;
#X connect 2 1 3 0;
#X connect 3 0 4 0;
#X connect 4 0 5 0;
#X connect 5 0 6 1;
#X connect 5 0 7 1;
#X connect 6 0 8 0;
#X connect 7 0 9 0;
#X connect 8 0 14 0;
#X connect 9 0 11 0;
#X connect 10 0 2 0;
#X connect 11 0 12 0;
#X connect 12 0 13 0;
#X connect 14 0 15 0;
#X connect 15 0 16 0;
