#N canvas 806 322 395 312 12;
#X obj 146 50 inlet;
#X obj 146 74 t f f;
#X obj 191 101 mod 10;
#X obj 191 125 sel 0 9;
#X msg 191 149 8, f 1;
#X msg 214 149 1, f 1;
#X obj 134 101 / 10;
#X obj 134 125 int;
#X obj 134 149 sel 0 9;
#X obj 180 173 * 10;
#X obj 180 206 +;
#X msg 157 173 10, f 2;
#X msg 134 173 80, f 2;
#X obj 180 230 outlet;
#X connect 0 0 1 0;
#X connect 1 0 6 0;
#X connect 1 1 2 0;
#X connect 2 0 3 0;
#X connect 3 0 4 0;
#X connect 3 1 5 0;
#X connect 3 2 10 1;
#X connect 4 0 10 1;
#X connect 5 0 10 1;
#X connect 6 0 7 0;
#X connect 7 0 8 0;
#X connect 8 0 12 0;
#X connect 8 1 11 0;
#X connect 8 2 9 0;
#X connect 9 0 10 0;
#X connect 10 0 13 0;
#X connect 11 0 10 0;
#X connect 12 0 10 0;
