#N canvas 829 405 575 371 12;
#X obj 134 42 inlet;
#X obj 131 270 outlet;
#X obj 134 69 t f f;
#X obj 131 217 * 12;
#X obj 131 245 +;
#X obj 131 170 int;
#X obj 99 170 int;
#X obj 99 195 - 1;
#X obj 99 143 moses 0;
#X obj 99 96 + 0.1;
#X obj 99 119 / 5;
#X obj 166 143 mod 5;
#X obj 166 167 tabread scale;
#X connect 0 0 2 0;
#X connect 2 0 9 0;
#X connect 2 1 11 0;
#X connect 3 0 4 0;
#X connect 4 0 1 0;
#X connect 5 0 3 0;
#X connect 6 0 7 0;
#X connect 7 0 3 0;
#X connect 8 0 6 0;
#X connect 8 1 5 0;
#X connect 9 0 10 0;
#X connect 10 0 8 0;
#X connect 11 0 12 0;
#X connect 12 0 4 1;
