#N canvas 488 53 1026 831 12;
#N canvas 665 24 498 844 snake 0;
#X msg 64 190 1, f 1;
#X obj 48 43 table snakefood 100;
#X obj 251 680 s refresh;
#N canvas 596 317 410 413 food_collision 0;
#X msg 101 40 0, f 1;
#X obj 101 64 tabread snakepos;
#X obj 101 114 tabread snakefood;
#X obj 101 138 sel 1;
#X obj 131 191 tabwrite snakefood;
#X msg 131 167 0, f 1;
#X obj 101 88 t f f;
#X obj 124 315 tabwrite snakepos;
#X obj 124 292 tabread snakepos;
#X obj 101 15 inlet;
#X obj 101 244 t f f f;
#X obj 46 267 + 1;
#X obj 46 291 s snakelen;
#X obj 101 215 v snakelen;
#X msg 124 268 0, f 1;
#X connect 0 0 1 0;
#X connect 1 0 6 0;
#X connect 2 0 3 0;
#X connect 3 0 5 0;
#X connect 3 0 13 0;
#X connect 5 0 4 0;
#X connect 6 0 2 0;
#X connect 6 1 4 1;
#X connect 8 0 7 0;
#X connect 9 0 0 0;
#X connect 10 0 11 0;
#X connect 10 1 14 0;
#X connect 10 2 7 1;
#X connect 11 0 12 0;
#X connect 13 0 10 0;
#X connect 14 0 8 0;
#X restore 291 398 pd food_collision;
#X obj 48 149 r snake_r;
#N canvas 878 337 451 347 move_shift 0;
#X obj 152 4 inlet;
#X obj 184 134 t b f;
#X obj 184 158 int;
#X obj 184 182 -;
#X obj 184 206 t f f;
#X obj 184 233 - 1;
#X obj 184 258 tabread snakepos;
#X obj 184 281 tabwrite snakepos;
#X obj 184 110 for;
#X obj 184 80 - 1;
#X obj 184 54 v snakelen;
#X obj 152 28 t b b;
#X msg 96 69 0, f 1;
#X obj 96 93 v snaketurn;
#X connect 0 0 11 0;
#X connect 1 0 2 0;
#X connect 1 1 3 1;
#X connect 2 0 3 0;
#X connect 3 0 4 0;
#X connect 4 0 5 0;
#X connect 4 1 7 1;
#X connect 5 0 6 0;
#X connect 6 0 7 0;
#X connect 8 0 1 0;
#X connect 9 0 2 1;
#X connect 9 0 8 0;
#X connect 10 0 9 0;
#X connect 11 0 12 0;
#X connect 11 1 10 0;
#X connect 12 0 13 0;
#X restore 362 294 pd move_shift;
#N canvas 681 183 518 542 move 0;
#X obj 93 19 inlet;
#X obj 93 70 tabread snakepos;
#X msg 93 43 0, f 1;
#X obj 93 157 +;
#X obj 93 181 LP_WRAP;
#X obj 93 304 tabwrite snakepos;
#X obj 111 127 v snakedir;
#X obj 93 253 sel 0;
#X obj 93 278 int;
#X obj 93 205 t f f;
#X obj 290 129 for 4;
#X obj 290 206 tabread move_dir;
#X obj 290 254 +;
#X obj 290 278 LP_WRAP;
#X obj 380 445 int;
#X obj 290 230 t f f;
#X obj 290 179 mod 4;
#X obj 290 99 t b b;
#X obj 290 153 +;
#X obj 290 304 t f f;
#X obj 290 382 int;
#X obj 290 356 sel 0;
#X obj 93 94 t f f b;
#X obj 93 229 collides;
#X obj 290 332 collides;
#X obj 290 408 tabwrite snakepos;
#X obj 380 469 v snakedir;
#X msg 196 445 1, f 1;
#X obj 196 469 v snaketurn;
#X obj 174 394 s breaksmove;
#X obj 341 100 r breaksmove;
#X connect 0 0 2 0;
#X connect 1 0 22 0;
#X connect 2 0 1 0;
#X connect 3 0 4 0;
#X connect 4 0 9 0;
#X connect 6 0 3 1;
#X connect 7 0 8 0;
#X connect 7 1 17 0;
#X connect 8 0 5 0;
#X connect 9 0 23 0;
#X connect 9 1 8 1;
#X connect 10 0 18 0;
#X connect 11 0 15 0;
#X connect 12 0 13 0;
#X connect 13 0 19 0;
#X connect 14 0 26 0;
#X connect 15 0 12 0;
#X connect 15 1 14 1;
#X connect 16 0 11 0;
#X connect 17 0 10 0;
#X connect 18 0 16 0;
#X connect 19 0 24 0;
#X connect 19 1 20 1;
#X connect 20 0 25 0;
#X connect 21 0 20 0;
#X connect 21 0 14 0;
#X connect 21 0 27 0;
#X connect 21 0 29 0;
#X connect 22 0 3 0;
#X connect 22 1 12 1;
#X connect 22 2 6 0;
#X connect 23 0 7 0;
#X connect 24 0 21 0;
#X connect 27 0 28 0;
#X connect 30 0 10 1;
#X restore 326 349 pd move;
#N canvas 601 267 313 220 self_collision 0;
#X obj 86 13 inlet;
#X msg 86 37 0, f 1;
#X obj 86 61 tabread snakepos;
#X obj 86 113 sel 1;
#X obj 86 137 s snake_r;
#X obj 86 88 collides;
#X obj 166 138 s snakeded_s;
#X connect 0 0 1 0;
#X connect 1 0 2 0;
#X connect 2 0 5 0;
#X connect 3 0 4 0;
#X connect 3 0 6 0;
#X connect 5 0 3 0;
#X restore 309 373 pd self_collision;
#X msg 149 190 0, f 1;
#X obj 48 68 table snakefood_loc 64;
#N canvas 712 215 369 432 food_shift 0;
#X obj 49 74 until;
#X msg 49 98 0, f 1;
#X obj 49 122 tabread snakefood_loc;
#X obj 49 146 tabread snakefood;
#X obj 49 21 inlet;
#X obj 49 170 sel 1;
#X obj 113 304 t f f;
#X obj 113 328 + 1;
#X obj 38 280 int;
#X obj 113 352 tabread snakefood_loc;
#X obj 113 376 tabwrite snakefood_loc;
#X obj 113 278 for;
#X obj 81 197 t b b;
#X obj 49 45 v foodlen;
#X obj 38 304 v foodlen;
#X obj 113 227 v foodlen;
#X obj 113 251 - 1;
#X connect 0 0 1 0;
#X connect 1 0 2 0;
#X connect 2 0 3 0;
#X connect 3 0 5 0;
#X connect 4 0 13 0;
#X connect 5 0 0 1;
#X connect 5 1 12 0;
#X connect 6 0 7 0;
#X connect 6 1 10 1;
#X connect 7 0 9 0;
#X connect 8 0 14 0;
#X connect 9 0 10 0;
#X connect 11 0 6 0;
#X connect 12 0 8 0;
#X connect 12 1 15 0;
#X connect 13 0 0 0;
#X connect 15 0 16 0;
#X connect 16 0 8 1;
#X connect 16 0 11 0;
#X restore 274 426 pd food_shift;
#N canvas 239 107 612 829 find_food 0;
#X obj 120 151 sel 0;
#X obj 120 100 inlet;
#X msg 386 330 0, f 1;
#X obj 386 354 tabread snakefood_loc;
#X obj 380 525 LP_DIST;
#X obj 336 44 loadbang;
#X obj 152 236 for 4;
#X obj 152 313 tabread move_dir;
#X obj 336 19 table move_dir 4;
#X msg 336 68 \; move_dir 0 1 -1 10 -10;
#X obj 152 361 +;
#X obj 152 385 LP_WRAP;
#X obj 152 544 <;
#X obj 152 569 sel 1;
#X obj 152 596 int;
#X obj 152 515 LP_DIST;
#X obj 152 337 t f f;
#X obj 198 236 random 4;
#X obj 152 286 mod 4;
#X obj 152 206 t b b;
#X obj 152 260 +;
#X msg 402 253 0, f 1;
#X obj 402 277 tabread snakepos;
#X obj 152 177 t b b b;
#X text 28 190 check all 4 dir;
#X text 344 567 calc original dist;
#X obj 120 127 v foodlen;
#X obj 152 411 t f f;
#X obj 152 489 int;
#X obj 152 463 sel 0;
#X obj 152 439 collides;
#X obj 152 620 v snakedir;
#X msg 126 657 1, f 1;
#X obj 126 681 v snaketurn;
#X obj 225 183 r ff-break;
#X obj 57 619 s ff-break;
#X connect 0 1 23 0;
#X connect 1 0 26 0;
#X connect 2 0 3 0;
#X connect 3 0 4 0;
#X connect 3 0 15 1;
#X connect 4 0 12 1;
#X connect 5 0 9 0;
#X connect 6 0 20 0;
#X connect 7 0 16 0;
#X connect 10 0 11 0;
#X connect 11 0 27 0;
#X connect 12 0 13 0;
#X connect 13 0 14 0;
#X connect 13 0 32 0;
#X connect 13 0 35 0;
#X connect 14 0 31 0;
#X connect 15 0 12 0;
#X connect 16 0 10 0;
#X connect 16 1 14 1;
#X connect 17 0 20 1;
#X connect 18 0 7 0;
#X connect 19 0 6 0;
#X connect 19 1 17 0;
#X connect 20 0 18 0;
#X connect 21 0 22 0;
#X connect 22 0 4 1;
#X connect 22 0 10 1;
#X connect 23 0 19 0;
#X connect 23 1 2 0;
#X connect 23 2 21 0;
#X connect 26 0 0 0;
#X connect 27 0 30 0;
#X connect 27 1 28 1;
#X connect 28 0 15 0;
#X connect 29 0 28 0;
#X connect 30 0 29 0;
#X connect 32 0 33 0;
#X connect 34 0 6 1;
#X restore 344 322 pd find_food;
#X obj 48 18 table snakepos 64;
#X msg 269 631 89 3;
#X obj 269 655 s control;
#X obj 251 455 spigot;
#X obj 300 455 r snakeon;
#X msg 48 264 \; snakepos 0 55 \; snakefood const 0;
#N canvas 297 238 585 569 show_foods 0;
#X obj 100 405 tabwrite snakefood;
#X obj 372 370 tabread snakefood;
#X msg 372 446 \$1 5;
#X obj 372 470 s control;
#X msg 100 379 1;
#X obj 372 343 t f f;
#X obj 372 420 int;
#X obj 372 394 sel 1;
#X obj 372 319 for 100;
#X obj 372 294 inlet;
#X obj 100 304 t f f;
#X obj 100 328 tabread snakefood;
#X obj 100 352 sel 0;
#X obj 53 481 int;
#X obj 53 508 tabwrite snakefood_loc;
#X obj 219 482 + 1;
#X obj 53 404 t b b;
#X obj 100 257 r note;
#X obj 100 281 spigot;
#X obj 157 281 r snakeon;
#X obj 204 456 v foodlen;
#X obj 219 508 v foodlen;
#X obj 141 25 r auto;
#X obj 141 51 spigot;
#X obj 193 25 r snakeon;
#X obj 53 44 r metro;
#X obj 53 94 spigot;
#X obj 53 142 sel 0;
#X obj 53 166 t b b;
#X obj 53 190 random 8;
#X obj 53 214 + 1;
#X obj 53 238 * 10;
#X obj 53 262 +;
#X obj 124 190 random 8;
#X obj 124 214 + 1;
#X obj 119 76 tgl 15 0 empty empty empty 17 7 0 10 #fcfcfc #000000
#000000 0 1;
#X obj 53 68 v clock;
#X obj 119 101 v snakeauto;
#X obj 228 378 spigot;
#X obj 285 378 r snakeon;
#X obj 53 118 mod 128;
#X connect 1 0 7 0;
#X connect 2 0 3 0;
#X connect 4 0 0 0;
#X connect 5 0 1 0;
#X connect 5 1 6 1;
#X connect 6 0 2 0;
#X connect 7 0 6 0;
#X connect 8 0 5 0;
#X connect 9 0 8 0;
#X connect 10 0 11 0;
#X connect 10 1 0 1;
#X connect 10 1 13 1;
#X connect 10 1 6 1;
#X connect 11 0 12 0;
#X connect 12 0 4 0;
#X connect 12 0 16 0;
#X connect 12 0 38 0;
#X connect 13 0 14 0;
#X connect 15 0 21 0;
#X connect 16 0 13 0;
#X connect 16 1 20 0;
#X connect 17 0 18 0;
#X connect 18 0 10 0;
#X connect 19 0 18 1;
#X connect 20 0 14 1;
#X connect 20 0 15 0;
#X connect 22 0 23 0;
#X connect 23 0 35 0;
#X connect 24 0 23 1;
#X connect 25 0 36 0;
#X connect 26 0 40 0;
#X connect 27 0 28 0;
#X connect 28 0 29 0;
#X connect 28 1 33 0;
#X connect 29 0 30 0;
#X connect 30 0 31 0;
#X connect 31 0 32 0;
#X connect 32 0 10 0;
#X connect 33 0 34 0;
#X connect 34 0 32 1;
#X connect 35 0 26 1;
#X connect 35 0 37 0;
#X connect 36 0 26 0;
#X connect 38 0 6 0;
#X connect 39 0 38 1;
#X connect 40 0 27 0;
#X restore 306 533 pd show_foods;
#N canvas 441 150 709 706 show_snake 0;
#X obj 56 124 tabread snakepos;
#X obj 56 172 s control;
#X obj 56 57 for;
#X obj 56 8 inlet;
#X obj 56 147 pack;
#X obj 183 124 sel 0;
#X obj 233 124 - 1;
#X msg 215 173 13;
#X obj 215 148 sel;
#X obj 56 32 v snakelen;
#X obj 233 100 v snakelen;
#X obj 56 81 t f f b;
#X obj 326 278 t f f f;
#X obj 410 335 tabread snakepos;
#X obj 410 309 - 1;
#X obj 410 359 tabread notes;
#X obj 535 334 tabread snakepos;
#X obj 535 358 tabread notes;
#X obj 535 308 + 1;
#X obj 326 387 tabread snakepos;
#X obj 326 411 tabread notes;
#X obj 326 459 expr $i1 >= $i2 && $i1 >= $i3;
#X obj 326 483 sel 1;
#X msg 300 593 4;
#X obj 372 137 t f f;
#X obj 326 250 int;
#X obj 326 507 int;
#X obj 326 531 mod 6;
#X obj 326 555 sel 0;
#X obj 326 435 - 7;
#X msg 332 594 9;
#X msg 183 147 57;
#X msg 230 290 1;
#X obj 326 181 expr $i1 % 3 == 0 && $i1 <= 15;
#X obj 326 205 sel 1;
#X connect 0 0 4 0;
#X connect 2 0 11 0;
#X connect 3 0 9 0;
#X connect 4 0 1 0;
#X connect 5 0 31 0;
#X connect 5 1 8 0;
#X connect 6 0 8 1;
#X connect 7 0 4 1;
#X connect 8 0 7 0;
#X connect 8 1 24 0;
#X connect 9 0 2 0;
#X connect 10 0 6 0;
#X connect 11 0 0 0;
#X connect 11 1 5 0;
#X connect 11 2 10 0;
#X connect 12 0 19 0;
#X connect 12 1 14 0;
#X connect 12 2 18 0;
#X connect 13 0 15 0;
#X connect 14 0 13 0;
#X connect 15 0 21 1;
#X connect 16 0 17 0;
#X connect 17 0 21 2;
#X connect 18 0 16 0;
#X connect 19 0 20 0;
#X connect 20 0 29 0;
#X connect 21 0 22 0;
#X connect 22 0 26 0;
#X connect 22 1 32 0;
#X connect 23 0 4 1;
#X connect 24 0 33 0;
#X connect 24 1 25 1;
#X connect 24 1 26 1;
#X connect 25 0 12 0;
#X connect 26 0 27 0;
#X connect 27 0 28 0;
#X connect 28 0 23 0;
#X connect 28 1 30 0;
#X connect 29 0 21 0;
#X connect 30 0 4 1;
#X connect 31 0 4 1;
#X connect 32 0 4 1;
#X connect 33 0 34 0;
#X connect 34 0 25 0;
#X connect 34 1 32 0;
#X restore 325 510 pd show_snake;
#N canvas 300 226 909 593 snakemusic 0;
#X obj 203 24 table notes 100;
#X obj 203 48 table notesvel 100;
#X obj 68 401 tabwrite notes;
#X obj 81 44 for 100;
#X obj 124 172 tabwrite notesvel;
#N canvas 686 422 450 300 tri-dist 0;
#X obj 117 67 inlet;
#X obj 117 91 t b b;
#X obj 91 114 random 100;
#X obj 117 139 +;
#X obj 117 188 outlet;
#X obj 171 114 random 100;
#X obj 117 163 / 200;
#X connect 0 0 1 0;
#X connect 1 0 2 0;
#X connect 1 1 5 0;
#X connect 2 0 3 0;
#X connect 3 0 6 0;
#X connect 5 0 3 1;
#X connect 6 0 4 0;
#X restore 124 147 pd tri-dist;
#X obj 81 19 r snake_r;
#X obj 464 55 inlet;
#X msg 307 273 0;
#X msg 396 243 3;
#X obj 307 297 snakebody;
#X obj 396 269 snakebody;
#X obj 396 168 v snakelen;
#X obj 396 217 sel 1;
#X obj 489 270 snakebody;
#X obj 489 169 v snakelen;
#X obj 489 218 sel 1;
#X msg 489 244 6;
#X obj 578 270 snakebody;
#X obj 578 169 v snakelen;
#X obj 578 218 sel 1;
#X msg 578 244 9;
#X obj 170 303 t b;
#X obj 46 272 sel 0 4;
#X obj 30 109 / 10;
#X obj 81 68 t f f b f;
#X obj 30 133 int;
#X obj 30 157 - 1;
#X obj 76 107 mod 10;
#X obj 76 131 - 1;
#X obj 46 190 +;
#X obj 46 246 mod 8;
#X obj 46 214 + 4;
#X obj 659 269 snakebody;
#X obj 659 168 v snakelen;
#X obj 659 217 sel 1;
#X msg 659 243 12;
#X obj 578 194 > 9;
#X obj 396 193 > 3;
#X obj 489 194 > 6;
#X obj 659 193 > 12;
#N canvas 261 177 776 400 snakeded 0;
#X obj 137 61 r tempo;
#X obj 138 244 *~;
#X obj 41 79 t b b;
#X obj 73 104 delay;
#X obj 73 183 line~;
#X obj 405 87 r tempo;
#X obj 525 82 r tempo;
#X obj 639 78 r tempo;
#X obj 137 135 delread~ snakeded;
#X obj 138 276 delwrite~ \$0-d 5000;
#X obj 405 138 delread~ \$0-d;
#X obj 525 132 delread~ \$0-d;
#X obj 639 129 delread~ \$0-d;
#X obj 294 159 *~ 0.5;
#X obj 406 162 *~ 0.38;
#X obj 525 156 *~ 0.25;
#X obj 638 154 *~ 0.13;
#X obj 137 85 * 8;
#X obj 294 135 delread~ \$0-d;
#X obj 405 111 * 3;
#X obj 525 106 * 6;
#X obj 639 102 * 9;
#X obj 41 55 r snakeded_s;
#X msg 73 128 0 20;
#X msg 41 152 1 20;
#X obj 398 241 throw~ snakemusicl;
#X obj 500 271 throw~ snakemusicr;
#X connect 0 0 17 0;
#X connect 1 0 9 0;
#X connect 2 0 24 0;
#X connect 2 1 3 0;
#X connect 3 0 23 0;
#X connect 4 0 1 1;
#X connect 5 0 19 0;
#X connect 6 0 20 0;
#X connect 7 0 21 0;
#X connect 8 0 1 0;
#X connect 10 0 14 0;
#X connect 11 0 15 0;
#X connect 12 0 16 0;
#X connect 13 0 25 0;
#X connect 14 0 26 0;
#X connect 15 0 25 0;
#X connect 16 0 26 0;
#X connect 17 0 3 1;
#X connect 17 0 8 0;
#X connect 18 0 13 0;
#X connect 19 0 10 0;
#X connect 20 0 11 0;
#X connect 21 0 12 0;
#X connect 22 0 2 0;
#X connect 23 0 4 0;
#X connect 24 0 4 0;
#X restore 728 75 pd snakeded;
#X obj 755 267 snakebody;
#X obj 755 166 v snakelen;
#X obj 755 215 sel 1;
#X obj 755 191 > 15;
#X msg 755 241 15;
#X obj 397 298 *~ 0.913;
#X obj 426 323 *~ 0.913;
#X obj 490 296 *~ 0.816;
#X obj 518 328 *~ 0.816;
#X obj 579 298 *~ 0.707;
#X obj 638 328 *~ 0.707;
#X obj 659 298 *~ 0.578;
#X obj 718 352 *~ 0.578;
#X obj 754 305 *~ 0.408;
#X obj 814 356 *~ 0.408;
#X obj 440 432 *~ 0.8;
#X obj 573 436 *~ 0.8;
#X obj 203 74 table noteslen 100;
#X obj 168 275 tabwrite noteslen;
#X obj 168 199 random 6;
#X obj 168 223 sel 0;
#X obj 244 468 delwrite~ snakeded 5000;
#X text 433 29 snake music is normal melody;
#X msg 168 247 2, f 1;
#X msg 200 247 4, f 1;
#X obj 170 350 - 8;
#X obj 26 327 random 8;
#X obj 170 327 random 15;
#X obj 98 327 random 15;
#X obj 26 352 - 15;
#X obj 439 488 throw~ snakemusicl;
#X obj 574 463 throw~ snakemusicr;
#X connect 3 0 25 0;
#X connect 5 0 4 0;
#X connect 6 0 3 0;
#X connect 7 0 8 0;
#X connect 7 0 34 0;
#X connect 7 0 19 0;
#X connect 7 0 15 0;
#X connect 7 0 12 0;
#X connect 7 0 43 0;
#X connect 8 0 10 0;
#X connect 9 0 11 0;
#X connect 10 0 57 0;
#X connect 10 0 63 0;
#X connect 10 1 58 0;
#X connect 10 1 63 0;
#X connect 11 0 47 0;
#X connect 11 1 48 0;
#X connect 12 0 38 0;
#X connect 13 0 9 0;
#X connect 14 0 49 0;
#X connect 14 1 50 0;
#X connect 15 0 39 0;
#X connect 16 0 17 0;
#X connect 17 0 14 0;
#X connect 18 0 51 0;
#X connect 18 1 52 0;
#X connect 19 0 37 0;
#X connect 20 0 21 0;
#X connect 21 0 18 0;
#X connect 22 0 69 0;
#X connect 23 0 68 0;
#X connect 23 1 70 0;
#X connect 23 2 22 0;
#X connect 24 0 26 0;
#X connect 25 0 24 0;
#X connect 25 1 28 0;
#X connect 25 2 5 0;
#X connect 25 2 61 0;
#X connect 25 3 4 1;
#X connect 25 3 2 1;
#X connect 25 3 60 1;
#X connect 26 0 27 0;
#X connect 27 0 30 0;
#X connect 28 0 29 0;
#X connect 29 0 30 1;
#X connect 30 0 32 0;
#X connect 31 0 23 0;
#X connect 32 0 31 0;
#X connect 33 0 53 0;
#X connect 33 1 54 0;
#X connect 34 0 40 0;
#X connect 35 0 36 0;
#X connect 36 0 33 0;
#X connect 37 0 20 0;
#X connect 38 0 13 0;
#X connect 39 0 16 0;
#X connect 40 0 35 0;
#X connect 42 0 55 0;
#X connect 42 1 56 0;
#X connect 43 0 45 0;
#X connect 44 0 46 0;
#X connect 45 0 44 0;
#X connect 46 0 42 0;
#X connect 47 0 58 0;
#X connect 48 0 57 0;
#X connect 49 0 57 0;
#X connect 50 0 58 0;
#X connect 51 0 58 0;
#X connect 52 0 57 0;
#X connect 53 0 57 0;
#X connect 54 0 58 0;
#X connect 55 0 58 0;
#X connect 56 0 57 0;
#X connect 57 0 72 0;
#X connect 58 0 73 0;
#X connect 61 0 62 0;
#X connect 62 0 65 0;
#X connect 62 1 66 0;
#X connect 65 0 60 0;
#X connect 66 0 60 0;
#X connect 67 0 2 0;
#X connect 68 0 71 0;
#X connect 69 0 67 0;
#X connect 70 0 2 0;
#X connect 71 0 2 0;
#X restore 260 732 pd snakemusic;
#X msg 50 342 bang;
#X obj 50 366 s snake_r;
#X obj 82 239 v snakedir;
#X obj 64 215 v snakelen;
#X obj 149 216 v foodlen;
#X obj 228 189 sel 0;
#X msg 260 61 0, f 1;
#X obj 260 85 tabread snakepos;
#X obj 260 109 tabread noteslen;
#X obj 228 162 mod;
#N canvas 484 200 707 610 foodmusic 0;
#X obj 202 26 inlet;
#X obj 202 57 v foodlen;
#X obj 202 81 sel 0;
#X msg 234 138 0, f 1;
#X obj 234 162 tabread snakefood_loc;
#X obj 234 186 tabread notes;
#X obj 234 304 +;
#X obj 252 282 v rootnote;
#X obj 234 258 t f b;
#X obj 234 358 line~;
#X obj 234 407 mtof~;
#X obj 235 500 *~;
#X obj 126 377 line~;
#X obj 339 284 v rootnote;
#X obj 384 312 loadbang;
#X msg 524 252 0, f 1;
#X obj 524 276 tabread snakepos;
#X obj 478 301 LP_DIST;
#X obj 234 112 t b b b;
#X obj 234 382 +~;
#X obj 478 376 line~;
#X obj 235 437 blsquare~;
#X obj 269 305 r tempo;
#X obj 234 330 pack;
#X obj 64 275 pack;
#X msg 64 248 0, f 2;
#X obj 89 224 r tempo;
#X obj 141 277 pack;
#X obj 166 250 r tempo;
#X msg 141 250 1, f 2;
#X obj 382 390 *~ 0.2;
#X obj 382 366 osc~ 4;
#X obj 490 143 v rootnote;
#X obj 490 167 mtof;
#X obj 490 191 blsquare~;
#X obj 236 465 bob~;
#X msg 384 337 3;
#X obj 490 215 *~ 0.6;
#X obj 478 325 expr pow(3.3 \, 8 - $f1) + 600;
#X msg 478 351 \$1 200;
#X text 273 10 food music is low-pass filtered string;
#X obj 89 248 * 4;
#X obj 234 233 pentamap;
#X obj 234 210 % 10;
#X obj 185 537 throw~ snakemusicl;
#X obj 327 537 throw~ snakemusicr;
#X connect 0 0 1 0;
#X connect 1 0 2 0;
#X connect 2 0 25 0;
#X connect 2 1 18 0;
#X connect 3 0 4 0;
#X connect 4 0 5 0;
#X connect 4 0 17 0;
#X connect 5 0 43 0;
#X connect 6 0 23 0;
#X connect 7 0 6 1;
#X connect 8 0 6 0;
#X connect 8 1 7 0;
#X connect 9 0 19 0;
#X connect 10 0 21 0;
#X connect 11 0 44 0;
#X connect 11 0 45 0;
#X connect 12 0 11 1;
#X connect 14 0 36 0;
#X connect 15 0 16 0;
#X connect 16 0 17 1;
#X connect 17 0 38 0;
#X connect 18 0 3 0;
#X connect 18 1 13 0;
#X connect 18 1 29 0;
#X connect 18 1 32 0;
#X connect 18 2 15 0;
#X connect 19 0 10 0;
#X connect 20 0 35 1;
#X connect 21 0 35 0;
#X connect 22 0 23 1;
#X connect 23 0 9 0;
#X connect 24 0 12 0;
#X connect 25 0 24 0;
#X connect 26 0 41 0;
#X connect 27 0 12 0;
#X connect 28 0 27 1;
#X connect 29 0 27 0;
#X connect 30 0 19 1;
#X connect 31 0 30 0;
#X connect 32 0 33 0;
#X connect 33 0 34 0;
#X connect 34 0 37 0;
#X connect 35 0 11 0;
#X connect 36 0 35 2;
#X connect 37 0 35 0;
#X connect 38 0 39 0;
#X connect 39 0 20 0;
#X connect 41 0 24 1;
#X connect 42 0 8 0;
#X connect 43 0 42 0;
#X restore 163 731 pd foodmusic;
#X obj 228 704 t b b;
#X obj 228 35 t b b;
#X obj 228 136 v clock;
#X obj 228 10 r metro;
#X obj 228 214 t b b b;
#X obj 274 238 t b b b b b b;
#X msg 288 584 95 \$1;
#X obj 288 608 s control;
#X obj 251 484 t b b b b b;
#X obj 288 559 v snakeauto;
#X connect 0 0 23 0;
#X connect 0 0 24 0;
#X connect 4 0 17 0;
#X connect 4 0 0 0;
#X connect 4 0 8 0;
#X connect 8 0 25 0;
#X connect 13 0 14 0;
#X connect 15 0 40 0;
#X connect 16 0 15 1;
#X connect 21 0 22 0;
#X connect 26 0 36 0;
#X connect 27 0 28 0;
#X connect 28 0 29 0;
#X connect 29 0 30 1;
#X connect 30 0 26 0;
#X connect 32 0 31 0;
#X connect 32 1 20 0;
#X connect 33 0 34 0;
#X connect 33 1 27 0;
#X connect 34 0 30 0;
#X connect 35 0 33 0;
#X connect 36 0 32 0;
#X connect 36 1 15 0;
#X connect 36 2 37 0;
#X connect 37 0 10 0;
#X connect 37 1 3 0;
#X connect 37 2 7 0;
#X connect 37 3 6 0;
#X connect 37 4 11 0;
#X connect 37 5 5 0;
#X connect 38 0 39 0;
#X connect 40 0 2 0;
#X connect 40 1 13 0;
#X connect 40 2 41 0;
#X connect 40 3 18 0;
#X connect 40 4 19 0;
#X connect 41 0 38 0;
#X restore 533 48 pd snake;
#X obj 180 140 TO_LPM_MK3;
#X obj 180 85 loadbang;
#X msg 180 109 programmer_mode 1;
#X obj 187 17 table display 100;
#X obj 312 57 r control;
#X obj 382 110 unpack;
#X obj 382 160 tabread display;
#X obj 382 208 sel 1;
#X obj 382 184 !=;
#X obj 382 232 int;
#X obj 382 256 tabwrite display;
#X obj 312 83 t a a;
#X obj 312 109 spigot;
#X obj 183 210 r refresh;
#X obj 215 310 t f f;
#X obj 215 387 pack;
#X msg 215 411 \$2 \$1;
#X obj 215 435 s control;
#X obj 317 17 table display_set 100;
#X obj 382 134 t f f b f;
#X msg 467 186 1, f 1;
#X obj 467 210 tabwrite display_set;
#X msg 56 270 \; display_set const 0;
#X obj 215 334 tabread display_set;
#X obj 215 358 sel 1;
#X obj 215 286 for 100;
#X obj 183 236 t b b;
#X obj 500 378 ctlin;
#X obj 371 314 notein;
#X obj 371 340 pack;
#X obj 371 390 route 127;
#X msg 371 364 \$2 \$1;
#X obj 371 414 s note;
#X obj 500 404 pack;
#X obj 500 428 route 127;
#X obj 424 518 == 89;
#X obj 424 542 s snakeon;
#X obj 500 476 moses 90;
#X obj 92 188 counter;
#N canvas 562 252 527 551 pong 0;
#X obj 300 273 spigot;
#X obj 352 273 r pongon;
#X obj 300 509 s refresh;
#X obj 318 484 s control;
#X msg 318 459 79 3;
#X obj 45 45 table pongmov 64;
#X obj 45 20 table pongpos 64;
#N canvas 1058 499 308 322 show_pong 0;
#X obj 53 5 inlet;
#X obj 53 56 for;
#X obj 53 203 tabread pongpos;
#X obj 53 227 pack;
#X obj 53 251 s control;
#X obj 76 179 tabread pongcol;
#X obj 53 31 v pongnum;
#X obj 76 105 tabread pongstate;
#X obj 76 129 sel 0;
#X obj 76 154 int;
#X obj 53 80 t f f f;
#X connect 0 0 6 0;
#X connect 1 0 10 0;
#X connect 2 0 3 0;
#X connect 3 0 4 0;
#X connect 5 0 3 1;
#X connect 6 0 1 0;
#X connect 7 0 8 0;
#X connect 8 0 9 0;
#X connect 8 1 3 1;
#X connect 9 0 5 0;
#X connect 10 0 2 0;
#X connect 10 1 7 0;
#X connect 10 2 9 1;
#X restore 374 326 pd show_pong;
#X obj 44 180 bng 15 250 50 0 empty empty empty 17 7 0 10 #fcfcfc #000000
#000000;
#X msg 64 200 0, f 1;
#X obj 44 155 r pong_r;
#N canvas 415 447 450 300 show_rac 0;
#X obj 162 19 inlet;
#X msg 162 43 0, f 1;
#X obj 162 67 tabread racpos;
#X obj 162 91 t b f;
#X obj 162 115 for 3;
#X obj 162 139 + 10;
#X obj 162 163 +;
#X msg 162 187 \$1 72;
#X obj 162 211 s control;
#X obj 285 68 tabread racpos;
#X obj 285 92 t b f;
#X obj 285 116 for 3;
#X obj 285 164 +;
#X obj 285 212 s control;
#X msg 285 44 1, f 1;
#X obj 285 140 + 80;
#X msg 285 188 \$1 79;
#X connect 0 0 1 0;
#X connect 0 0 14 0;
#X connect 1 0 2 0;
#X connect 2 0 3 0;
#X connect 3 0 4 0;
#X connect 3 1 6 1;
#X connect 4 0 5 0;
#X connect 5 0 6 0;
#X connect 6 0 7 0;
#X connect 7 0 8 0;
#X connect 9 0 10 0;
#X connect 10 0 11 0;
#X connect 10 1 12 1;
#X connect 11 0 15 0;
#X connect 12 0 16 0;
#X connect 14 0 9 0;
#X connect 15 0 12 0;
#X connect 16 0 13 0;
#X restore 355 352 pd show_rac;
#N canvas 1036 37 730 877 move 0;
#X obj 123 2 inlet;
#X obj 123 48 for;
#X obj 123 345 tabread pongpos;
#X obj 123 391 +;
#X obj 123 295 t f f f;
#X obj 146 321 tabread pongmov;
#X obj 123 415 t f f;
#X obj 177 442 mod 10;
#X obj 400 298 sel 0 9;
#X obj 123 442 / 10;
#X msg 400 323 1, f 1;
#X msg 416 323 8, f 1;
#X obj 400 352 t f b;
#X obj 254 410 int;
#X obj 129 613 expr $i1 >= racpos[0] && $i1 < racpos[0] + 3, f 24
;
#X obj 332 613 expr $i1 >= racpos[1] && $i1 < racpos[1] + 3, f 24
;
#X obj 332 652 sel 1;
#X msg 364 678 8, f 1;
#X msg 332 678 7, f 1;
#X obj 330 492 tabwrite pongmov;
#X obj 254 434 sel 11 9 -11 -9;
#X msg 254 458 9, f 1;
#X msg 279 458 11, f 2;
#X msg 330 458 -11;
#X msg 305 458 -9, f 2;
#X obj 382 542 int;
#X obj 129 588 int;
#X obj 332 588 int;
#X obj 211 542 sel 1 8;
#X obj 129 652 sel 1;
#X obj 208 750 * 10;
#X obj 60 754 random 3;
#X obj 332 735 random 3;
#X obj 332 759 + 3;
#X msg 60 730 bang;
#X msg 332 711 bang;
#X obj 60 778 tabread pongdir;
#X obj 60 802 tabwrite pongmov;
#X obj 208 774 +;
#X msg 129 678 2, f 1;
#X msg 161 678 1, f 1;
#X obj 208 798 tabwrite pongpos;
#X text 412 543 y pos;
#X obj 123 466 int;
#X obj 123 26 v pongnum;
#X obj 123 97 tabread pongmov;
#X obj 123 121 mod 10;
#X obj 123 72 t f f;
#X obj 123 168 v clock;
#X obj 123 242 sel 0;
#X obj 123 268 int;
#X obj 123 145 t b f;
#X obj 123 218 mod;
#X obj 241 847 s pongmov;
#X obj 123 193 +;
#X obj 210 164 sel 0;
#X obj 241 824 change;
#X obj 28 833 s pongbass;
#X obj 439 407 s pongwall;
#X obj 123 369 t f f;
#X obj 384 236 tabwrite pongstate;
#X obj 336 159 r pongwall;
#X msg 336 183 37;
#X obj 423 159 r pongbass;
#X msg 423 183 17;
#X msg 261 243 0;
#X obj 156 194 * 2;
#X msg 210 193 4, f 2;
#X msg 242 193 6, f 2;
#X connect 0 0 44 0;
#X connect 1 0 47 0;
#X connect 2 0 59 0;
#X connect 3 0 6 0;
#X connect 4 0 2 0;
#X connect 4 1 5 0;
#X connect 4 1 65 0;
#X connect 4 2 19 1;
#X connect 4 2 37 1;
#X connect 4 2 41 1;
#X connect 4 2 60 1;
#X connect 5 0 3 1;
#X connect 5 0 13 1;
#X connect 6 0 9 0;
#X connect 6 1 7 0;
#X connect 7 0 8 0;
#X connect 8 0 10 0;
#X connect 8 1 11 0;
#X connect 8 2 25 0;
#X connect 9 0 43 0;
#X connect 10 0 12 0;
#X connect 11 0 12 0;
#X connect 12 0 25 0;
#X connect 12 0 58 0;
#X connect 12 1 13 0;
#X connect 13 0 20 0;
#X connect 14 0 29 0;
#X connect 15 0 16 0;
#X connect 16 0 18 0;
#X connect 16 1 17 0;
#X connect 17 0 30 0;
#X connect 18 0 30 0;
#X connect 18 0 35 0;
#X connect 20 0 21 0;
#X connect 20 1 22 0;
#X connect 20 2 24 0;
#X connect 20 3 23 0;
#X connect 21 0 19 0;
#X connect 22 0 19 0;
#X connect 23 0 19 0;
#X connect 24 0 19 0;
#X connect 25 0 26 1;
#X connect 25 0 27 1;
#X connect 25 0 38 1;
#X connect 26 0 14 0;
#X connect 27 0 15 0;
#X connect 28 0 26 0;
#X connect 28 1 27 0;
#X connect 28 2 30 0;
#X connect 29 0 39 0;
#X connect 29 1 40 0;
#X connect 30 0 38 0;
#X connect 31 0 36 0;
#X connect 32 0 33 0;
#X connect 33 0 36 0;
#X connect 34 0 31 0;
#X connect 35 0 32 0;
#X connect 36 0 37 0;
#X connect 36 0 57 0;
#X connect 38 0 41 0;
#X connect 38 0 56 0;
#X connect 39 0 30 0;
#X connect 39 0 34 0;
#X connect 40 0 30 0;
#X connect 43 0 28 0;
#X connect 44 0 1 0;
#X connect 45 0 46 0;
#X connect 46 0 51 0;
#X connect 47 0 45 0;
#X connect 47 1 50 1;
#X connect 47 1 66 0;
#X connect 48 0 54 0;
#X connect 49 0 50 0;
#X connect 50 0 4 0;
#X connect 51 0 48 0;
#X connect 51 1 55 0;
#X connect 52 0 49 0;
#X connect 54 0 52 0;
#X connect 55 0 67 0;
#X connect 55 1 68 0;
#X connect 56 0 53 0;
#X connect 59 0 3 0;
#X connect 61 0 62 0;
#X connect 62 0 60 0;
#X connect 63 0 64 0;
#X connect 64 0 60 0;
#X connect 65 0 60 0;
#X connect 66 0 54 1;
#X connect 67 0 52 1;
#X connect 68 0 52 1;
#X restore 340 219 pd move;
#N canvas 577 106 550 644 input 0;
#X obj 121 523 table pongdir 6;
#X obj 42 523 loadbang;
#X obj 39 272 r note;
#X obj 39 296 spigot;
#X obj 89 272 r pongon;
#X obj 62 421 tabwrite pongpos;
#X obj 198 401 + 1;
#X obj 39 470 tabread pongdir;
#X obj 39 494 tabwrite pongmov;
#X obj 39 320 t b f b;
#X obj 39 446 random 6;
#X msg 42 547 \; pongdir 0 9 10 11 -9 -10 -11;
#X obj 415 448 counter;
#X obj 415 472 mod 16;
#X obj 415 520 tabwrite pongcol;
#X obj 274 555 pack;
#X obj 274 579 s command;
#X obj 356 602 tabwrite display;
#X obj 415 496 + 88;
#X obj 274 470 t f b f;
#X obj 198 425 v pongnum;
#X obj 198 352 v pongnum;
#X obj 198 376 t f f;
#X obj 79 389 s pongput;
#X obj 282 23 r auto;
#X obj 282 49 spigot;
#X obj 194 42 r metro;
#X obj 194 92 spigot;
#X obj 260 74 tgl 15 0 empty empty empty 17 7 0 10 #fcfcfc #000000
#000000 0 1;
#X obj 194 66 v clock;
#X obj 334 23 r pongon;
#X obj 260 99 v pongauto;
#X obj 194 140 sel 0;
#X obj 194 164 t b b;
#X obj 194 236 * 10;
#X obj 265 188 random 8;
#X obj 265 212 + 1;
#X obj 194 188 random 4;
#X obj 194 212 + 3;
#X obj 194 260 +;
#X obj 274 527 spigot;
#X obj 313 503 r pongon;
#X obj 356 579 spigot;
#X obj 395 555 r pongon;
#X obj 194 116 mod 128;
#X connect 1 0 11 0;
#X connect 2 0 3 0;
#X connect 3 0 9 0;
#X connect 4 0 3 1;
#X connect 6 0 20 0;
#X connect 7 0 8 0;
#X connect 9 0 10 0;
#X connect 9 1 5 0;
#X connect 9 1 23 0;
#X connect 9 1 19 0;
#X connect 9 2 21 0;
#X connect 10 0 7 0;
#X connect 12 0 13 0;
#X connect 13 0 18 0;
#X connect 15 0 16 0;
#X connect 18 0 14 0;
#X connect 18 0 15 1;
#X connect 18 0 42 0;
#X connect 19 0 40 0;
#X connect 19 1 12 0;
#X connect 19 2 17 1;
#X connect 21 0 22 0;
#X connect 22 0 6 0;
#X connect 22 1 5 1;
#X connect 22 1 8 1;
#X connect 22 1 14 1;
#X connect 24 0 25 0;
#X connect 25 0 28 0;
#X connect 26 0 29 0;
#X connect 27 0 44 0;
#X connect 28 0 27 1;
#X connect 28 0 31 0;
#X connect 29 0 27 0;
#X connect 30 0 25 1;
#X connect 32 0 33 0;
#X connect 33 0 37 0;
#X connect 33 1 35 0;
#X connect 34 0 39 0;
#X connect 35 0 36 0;
#X connect 36 0 39 1;
#X connect 37 0 38 0;
#X connect 38 0 34 0;
#X connect 39 0 9 0;
#X connect 40 0 15 0;
#X connect 41 0 40 1;
#X connect 42 0 17 0;
#X connect 43 0 42 1;
#X connect 44 0 32 0;
#X restore 200 20 pd input;
#X obj 44 120 table racpos 2;
#X msg 44 250 \; racpos 0 3 4;
#N canvas 840 246 433 457 remove_oob 0;
#X msg 75 60 64, f 2;
#X obj 75 84 until;
#X obj 75 108 int;
#X obj 200 120 + 1;
#X obj 200 95 int;
#X obj 75 280 tabread pongpos;
#X obj 75 255 t f f;
#X obj 75 381 int;
#X obj 128 330 moses 90;
#X msg 75 357 bang;
#X msg 268 230 bang;
#X obj 75 183 >=;
#X obj 75 207 sel 0 1;
#X obj 75 231 int;
#X obj 75 10 inlet;
#X msg 97 60 0, f 1;
#X obj 75 34 t b b;
#X obj 75 307 moses 10;
#N canvas 234 234 450 339 shift 0;
#X obj 137 119 -;
#X obj 137 146 until;
#X obj 137 170 counter;
#X obj 128 34 inlet;
#X obj 137 194 +;
#X obj 137 243 + 1;
#X obj 128 58 t b b f b;
#X obj 137 218 t f f;
#X obj 49 273 tabread pongpos;
#X obj 49 297 tabwrite pongpos;
#X obj 177 273 tabread pongmov;
#X obj 177 297 tabwrite pongmov;
#X obj 301 273 tabread pongcol;
#X obj 301 297 tabwrite pongcol;
#X obj 137 94 v pongnum;
#X obj 44 93 v pongnum;
#X obj 44 144 v pongnum;
#X obj 44 117 - 1;
#X connect 0 0 1 0;
#X connect 1 0 2 0;
#X connect 2 0 4 0;
#X connect 3 0 6 0;
#X connect 4 0 7 0;
#X connect 5 0 8 0;
#X connect 5 0 10 0;
#X connect 5 0 12 0;
#X connect 6 0 15 0;
#X connect 6 1 14 0;
#X connect 6 2 0 1;
#X connect 6 2 4 1;
#X connect 6 3 2 1;
#X connect 7 0 5 0;
#X connect 7 1 9 1;
#X connect 7 1 11 1;
#X connect 7 1 13 1;
#X connect 8 0 9 0;
#X connect 10 0 11 0;
#X connect 12 0 13 0;
#X connect 14 0 0 0;
#X connect 15 0 17 0;
#X connect 17 0 16 0;
#X restore 75 406 pd shift;
#X text 130 60 for i < 64;
#X text 169 310 if 10 < pongpos[i] < 90: i++;
#X text 138 405 else: remove(i);
#X text 135 206 if i >= pongnum: break;
#X obj 75 131 t f b f;
#X obj 98 158 v pongnum;
#X obj 124 34 r remove-oob-break;
#X obj 114 231 s remove-oob-break;
#X connect 0 0 1 0;
#X connect 1 0 2 0;
#X connect 2 0 23 0;
#X connect 3 0 2 1;
#X connect 4 0 3 0;
#X connect 5 0 17 0;
#X connect 6 0 5 0;
#X connect 6 1 7 1;
#X connect 7 0 18 0;
#X connect 8 0 10 0;
#X connect 8 1 9 0;
#X connect 9 0 7 0;
#X connect 10 0 4 0;
#X connect 11 0 12 0;
#X connect 12 0 13 0;
#X connect 12 1 26 0;
#X connect 13 0 6 0;
#X connect 14 0 16 0;
#X connect 15 0 2 1;
#X connect 16 0 0 0;
#X connect 16 1 15 0;
#X connect 17 0 9 0;
#X connect 17 1 8 0;
#X connect 23 0 11 0;
#X connect 23 1 24 0;
#X connect 23 2 4 1;
#X connect 23 2 13 1;
#X connect 24 0 11 1;
#X connect 25 0 1 1;
#X restore 320 246 pd remove_oob;
#X obj 45 70 table pongcol 64;
#N canvas 953 266 450 680 red_move 0;
#X msg 149 113 0, f 1;
#X obj 149 136 tabread racpos;
#X obj 130 3 inlet;
#X obj 255 83 for;
#X obj 255 131 tabread pongmov;
#X obj 255 155 < 0;
#X obj 255 179 sel 1;
#X obj 255 203 int;
#X obj 255 107 t f f;
#X obj 255 227 tabread pongpos;
#X obj 255 253 moses 20;
#X obj 82 346 mod 10;
#X obj 82 370 -;
#X obj 82 472 +;
#X obj 82 522 tabwrite racpos;
#X msg 82 433 -1, f 2;
#X msg 174 438 1, f 1;
#X obj 82 394 moses 1;
#X obj 128 416 moses 2;
#X obj 255 300 / 10;
#X obj 255 324 int;
#X obj 82 321 int;
#X obj 255 373 <;
#X obj 130 27 t b b b b;
#X obj 255 276 t f f;
#X msg 305 354 10;
#X obj 161 302 spigot;
#X obj 255 348 t f f;
#X obj 255 397 sel 1;
#X obj 255 421 int;
#X obj 82 296 spigot;
#X msg 161 327 1, f 1;
#X msg 189 211 0, f 1;
#X obj 82 496 clip 1 6;
#X obj 255 59 v pongnum;
#X obj 29 561 s redmove;
#X obj 29 536 change;
#X connect 0 0 1 0;
#X connect 1 0 12 1;
#X connect 1 0 13 1;
#X connect 2 0 23 0;
#X connect 3 0 8 0;
#X connect 4 0 5 0;
#X connect 5 0 6 0;
#X connect 6 0 7 0;
#X connect 7 0 9 0;
#X connect 8 0 4 0;
#X connect 8 1 7 1;
#X connect 9 0 10 0;
#X connect 10 1 24 0;
#X connect 11 0 12 0;
#X connect 12 0 17 0;
#X connect 13 0 33 0;
#X connect 15 0 13 0;
#X connect 16 0 13 0;
#X connect 17 0 15 0;
#X connect 17 1 18 0;
#X connect 18 1 16 0;
#X connect 19 0 20 0;
#X connect 20 0 27 0;
#X connect 21 0 11 0;
#X connect 22 0 26 1;
#X connect 22 0 28 0;
#X connect 23 0 30 0;
#X connect 23 1 0 0;
#X connect 23 2 34 0;
#X connect 23 3 25 0;
#X connect 23 3 32 0;
#X connect 24 0 26 0;
#X connect 24 1 19 0;
#X connect 25 0 22 1;
#X connect 26 0 21 1;
#X connect 26 0 31 0;
#X connect 27 0 22 0;
#X connect 27 1 29 1;
#X connect 28 0 29 0;
#X connect 29 0 22 1;
#X connect 30 0 21 0;
#X connect 31 0 30 1;
#X connect 32 0 30 1;
#X connect 33 0 14 0;
#X connect 33 0 36 0;
#X connect 34 0 3 0;
#X connect 36 0 35 0;
#X restore 392 168 pd red_move;
#N canvas 1187 197 450 655 blue_move 0;
#X obj 145 173 tabread racpos;
#X obj 125 35 inlet;
#X obj 251 121 for;
#X obj 251 169 tabread pongmov;
#X obj 251 217 sel 1;
#X obj 251 241 int;
#X obj 251 145 t f f;
#X obj 251 265 tabread pongpos;
#X obj 78 383 mod 10;
#X obj 78 407 -;
#X obj 78 509 +;
#X obj 78 558 tabwrite racpos;
#X msg 78 470 -1, f 2;
#X msg 170 475 1, f 1;
#X obj 78 431 moses 1;
#X obj 124 453 moses 2;
#X obj 251 338 / 10;
#X obj 251 362 int;
#X obj 78 358 int;
#X obj 125 59 t b b b b;
#X obj 251 314 t f f;
#X obj 157 339 spigot;
#X obj 251 386 t f f;
#X obj 251 435 sel 1;
#X obj 251 459 int;
#X obj 251 193 > 0;
#X obj 251 291 moses 80;
#X msg 145 150 1, f 1;
#X obj 180 510 loadbang;
#X msg 180 534 1, f 1;
#X msg 301 392 0;
#X obj 251 411 >;
#X msg 164 234 0, f 1;
#X obj 78 333 spigot;
#X msg 157 366 1, f 1;
#X obj 78 533 clip 1 6;
#X obj 251 96 v pongnum;
#X obj 33 579 change;
#X obj 33 604 s bluemove;
#X connect 0 0 9 1;
#X connect 0 0 10 1;
#X connect 1 0 19 0;
#X connect 2 0 6 0;
#X connect 3 0 25 0;
#X connect 4 0 5 0;
#X connect 5 0 7 0;
#X connect 6 0 3 0;
#X connect 6 1 5 1;
#X connect 7 0 26 0;
#X connect 8 0 9 0;
#X connect 9 0 14 0;
#X connect 10 0 35 0;
#X connect 12 0 10 0;
#X connect 13 0 10 0;
#X connect 14 0 12 0;
#X connect 14 1 15 0;
#X connect 15 1 13 0;
#X connect 16 0 17 0;
#X connect 17 0 22 0;
#X connect 18 0 8 0;
#X connect 19 0 33 0;
#X connect 19 1 27 0;
#X connect 19 2 36 0;
#X connect 19 3 30 0;
#X connect 19 3 32 0;
#X connect 20 0 21 0;
#X connect 20 1 16 0;
#X connect 21 0 18 1;
#X connect 21 0 34 0;
#X connect 22 0 31 0;
#X connect 22 1 24 1;
#X connect 23 0 24 0;
#X connect 24 0 31 1;
#X connect 25 0 4 0;
#X connect 26 0 20 0;
#X connect 27 0 0 0;
#X connect 28 0 29 0;
#X connect 29 0 11 1;
#X connect 30 0 31 1;
#X connect 31 0 21 1;
#X connect 31 0 23 0;
#X connect 32 0 33 1;
#X connect 33 0 18 0;
#X connect 34 0 33 1;
#X connect 35 0 11 0;
#X connect 35 0 37 0;
#X connect 36 0 2 0;
#X connect 37 0 38 0;
#X restore 360 192 pd blue_move;
#X obj 300 20 r metro;
#X obj 64 225 v pongnum;
#X obj 300 46 t b b b b;
#X obj 360 142 t b b;
#X obj 360 70 v clock;
#X obj 360 118 sel 0;
#N canvas 744 357 510 369 racmusic 0;
#X obj 69 49 r redmove;
#X obj 69 193 bltri~;
#X obj 313 193 bltri~;
#X obj 313 48 r bluemove;
#X obj 313 169 mtof;
#X obj 69 168 mtof;
#X obj 69 144 expr $i1 + rootnote - 12;
#X obj 313 145 expr $i1 + rootnote - 24;
#X obj 69 97 random 6;
#X obj 313 95 random 6;
#X msg 69 73 bang;
#X msg 313 72 bang;
#X obj 115 266 *~ 0.8;
#X obj 247 265 *~ 0.8;
#X text 173 15 racket is bass;
#X obj 69 217 *~ 0.3;
#X obj 314 217 *~ 0.4;
#X obj 69 121 pentamap;
#X obj 313 119 pentamap;
#X obj 125 326 throw~ pongmusicl;
#X obj 283 327 throw~ pongmusicr;
#X connect 0 0 10 0;
#X connect 1 0 15 0;
#X connect 2 0 16 0;
#X connect 3 0 11 0;
#X connect 4 0 2 0;
#X connect 5 0 1 0;
#X connect 6 0 5 0;
#X connect 7 0 4 0;
#X connect 8 0 17 0;
#X connect 9 0 18 0;
#X connect 10 0 8 0;
#X connect 11 0 9 0;
#X connect 12 0 20 0;
#X connect 13 0 19 0;
#X connect 15 0 12 0;
#X connect 15 0 19 0;
#X connect 16 0 13 0;
#X connect 16 0 20 0;
#X connect 17 0 6 0;
#X connect 18 0 7 0;
#X restore 38 313 pd racmusic;
#N canvas 615 179 1101 484 pongmusic 0;
#X obj 149 100 r pongmov;
#X obj 64 197 noise~;
#X obj 64 253 *~;
#X obj 53 322 *~;
#X obj 95 322 *~;
#X obj 271 171 LP_PAN;
#X obj 149 124 t b b f;
#X obj 458 111 r pongbass;
#X obj 65 225 hip~;
#X obj 172 147 random 4000;
#X obj 172 172 + 2000;
#X obj 350 270 *~;
#X obj 458 135 t b b;
#X obj 646 114 r pongwall;
#X obj 578 265 *~;
#X obj 579 209 noise~;
#X obj 646 138 t b b f;
#X obj 578 313 *~;
#X obj 620 313 *~;
#X msg 401 190 150;
#X obj 727 237 sel 1;
#X msg 349 190 50 100;
#X obj 349 243 osc~;
#X obj 349 217 line~;
#X text 384 24 pong music is percussion;
#X text 150 74 hi-hat;
#X text 458 87 bass drum;
#X text 645 87 snare/clap?;
#X obj 898 88 r pongput;
#X text 900 64 crash;
#X obj 898 114 t b f;
#X obj 826 172 noise~;
#X obj 825 252 *~;
#X obj 930 251 LP_PAN;
#X obj 849 295 *~;
#X obj 908 297 *~;
#X msg 703 270 0.8;
#X msg 750 271 0.8;
#X obj 646 186 + 800;
#X obj 646 162 random 400;
#X obj 579 238 vcf~ 0.4;
#X obj 883 168 + 2500;
#X obj 883 144 random 200;
#X obj 825 201 vcf~ 3;
#X obj 351 423 throw~ pongmusicl;
#X obj 532 425 throw~ pongmusicr;
#X obj 477 195 s duck;
#X obj 350 294 *~ 1.4;
#X obj 64 277 *~ 0.7;
#X msg 671 270 1.1;
#X msg 782 271 1.1;
#X obj 826 226 *~ 4;
#X obj 898 227 ahr~ 20 50 500;
#X obj 149 197 ahr~ 5 0 70;
#X obj 696 208 ahr~ 5 30 150;
#X obj 458 161 ahr~ 10 0 120;
#X connect 0 0 6 0;
#X connect 1 0 8 0;
#X connect 2 0 48 0;
#X connect 3 0 44 0;
#X connect 4 0 45 0;
#X connect 5 0 3 1;
#X connect 5 1 4 1;
#X connect 6 0 53 0;
#X connect 6 1 9 0;
#X connect 6 2 5 0;
#X connect 7 0 12 0;
#X connect 8 0 2 0;
#X connect 9 0 10 0;
#X connect 10 0 8 1;
#X connect 11 0 47 0;
#X connect 12 0 21 0;
#X connect 12 0 46 0;
#X connect 12 0 55 0;
#X connect 12 1 19 0;
#X connect 13 0 16 0;
#X connect 14 0 17 0;
#X connect 14 0 18 0;
#X connect 15 0 40 0;
#X connect 16 0 39 0;
#X connect 16 1 54 0;
#X connect 16 2 20 0;
#X connect 17 0 44 0;
#X connect 18 0 45 0;
#X connect 19 0 23 0;
#X connect 20 0 49 0;
#X connect 20 0 36 0;
#X connect 20 1 37 0;
#X connect 20 1 50 0;
#X connect 21 0 23 0;
#X connect 22 0 11 0;
#X connect 23 0 22 0;
#X connect 28 0 30 0;
#X connect 30 0 42 0;
#X connect 30 0 52 0;
#X connect 30 1 33 0;
#X connect 31 0 43 0;
#X connect 32 0 34 0;
#X connect 32 0 35 0;
#X connect 33 0 34 1;
#X connect 33 1 35 1;
#X connect 34 0 44 0;
#X connect 35 0 45 0;
#X connect 36 0 18 1;
#X connect 37 0 17 1;
#X connect 38 0 40 1;
#X connect 39 0 38 0;
#X connect 40 0 14 0;
#X connect 41 0 43 1;
#X connect 42 0 41 0;
#X connect 43 0 51 0;
#X connect 47 0 44 0;
#X connect 47 0 45 0;
#X connect 48 0 3 0;
#X connect 48 0 4 0;
#X connect 49 0 17 1;
#X connect 50 0 18 1;
#X connect 51 0 32 0;
#X connect 52 0 32 1;
#X connect 53 0 2 1;
#X connect 54 0 14 1;
#X connect 55 0 11 1;
#X restore 131 313 pd pongmusic;
#X obj 44 94 table pongstate 64;
#X obj 300 297 t b b b b b;
#X obj 337 430 s control;
#X obj 337 378 v pongauto;
#X msg 337 405 95 \$1;
#X obj 360 94 mod 4;
#X connect 0 0 29 0;
#X connect 1 0 0 1;
#X connect 4 0 3 0;
#X connect 8 0 9 0;
#X connect 8 0 15 0;
#X connect 9 0 21 0;
#X connect 10 0 8 0;
#X connect 20 0 22 0;
#X connect 22 0 0 0;
#X connect 22 1 16 0;
#X connect 22 2 12 0;
#X connect 22 3 24 0;
#X connect 23 0 19 0;
#X connect 23 1 18 0;
#X connect 24 0 33 0;
#X connect 25 0 23 0;
#X connect 29 0 2 0;
#X connect 29 1 4 0;
#X connect 29 2 31 0;
#X connect 29 3 11 0;
#X connect 29 4 7 0;
#X connect 31 0 32 0;
#X connect 32 0 30 0;
#X connect 33 0 25 0;
#X restore 533 74 pd pong;
#X obj 500 518 == 79;
#X obj 500 542 s pongon;
#X obj 96 503 s pong_r;
#X obj 19 503 s snake_r;
#X obj 64 440 loadbang;
#X obj 46 90 tgl 15 0 empty empty empty 17 7 0 10 #fcfcfc #000000 #000000
0 1;
#X obj 260 140 r command;
#X obj 603 346 t b b;
#X obj 603 418 s command;
#X msg 603 394 99 0;
#X msg 643 394 99 1;
#X obj 348 490 == 19;
#X obj 348 541 s switch;
#X obj 46 65 r switch;
#X obj 348 514 sel 1;
#X msg 17 129 19 \$1;
#X obj 17 153 s command;
#X obj 500 451 moses 50;
#X msg 165 504 clear;
#X obj 165 528 s command;
#N canvas 557 80 535 877 space 0;
#X obj 232 554 spigot;
#X obj 285 554 r spaceon;
#X obj 232 823 s refresh;
#X obj 31 122 r space_r;
#X obj 31 148 bng 15 250 50 0 empty empty empty 17 7 0 10 #fcfcfc #000000
#000000;
#X obj 31 16 table enepos 100;
#X obj 249 797 s control;
#X msg 249 772 69 3;
#N canvas 574 219 375 338 show_ship 0;
#X obj 32 20 inlet;
#X obj 177 42 table posmap 4;
#X obj 178 72 loadbang;
#X obj 32 46 for 4;
#X obj 32 70 tabread posmap;
#X obj 32 252 s control;
#X msg 32 228 \$1 87;
#X msg 178 96 \; posmap 0 9 10 11 20;
#X obj 32 118 t f f;
#X obj 64 145 mod 10;
#X obj 32 202 spigot;
#X obj 64 169 expr $i1 > 0 && $i1 < 9;
#X obj 32 94 expr shippos + $i1;
#X connect 0 0 3 0;
#X connect 2 0 7 0;
#X connect 3 0 4 0;
#X connect 4 0 12 0;
#X connect 6 0 5 0;
#X connect 8 0 10 0;
#X connect 8 1 9 0;
#X connect 9 0 11 0;
#X connect 10 0 6 0;
#X connect 11 0 10 1;
#X connect 12 0 8 0;
#X restore 284 661 pd show_ship;
#N canvas 255 145 550 573 input 0;
#X obj 69 308 r note;
#X obj 69 332 spigot;
#X obj 198 466 s command;
#X obj 278 466 tabwrite display;
#X obj 198 406 t f b f;
#X obj 119 308 r spaceon;
#X obj 69 356 t f f;
#X msg 69 380 1, f 1;
#X msg 244 438 81;
#X msg 198 438 \$1 81;
#X obj 69 405 tabwrite enepos;
#X obj 119 440 s putene;
#X obj 129 37 r auto;
#X obj 129 63 spigot;
#X obj 41 56 r metro;
#X obj 41 106 spigot;
#X obj 107 88 tgl 15 0 empty empty empty 17 7 0 10 #fcfcfc #000000
#000000 0 1;
#X obj 41 80 v clock;
#X obj 41 154 sel 0;
#X obj 41 178 t b b;
#X obj 41 250 * 10;
#X obj 112 202 random 8;
#X obj 112 226 + 1;
#X obj 41 274 +;
#X obj 181 37 r spaceon;
#X obj 107 113 v spaceauto;
#X obj 41 202 random 3;
#X obj 41 226 + 6;
#X obj 198 382 spigot;
#X obj 240 353 r spaceon;
#X obj 41 130 mod 12;
#X connect 0 0 1 0;
#X connect 1 0 6 0;
#X connect 4 0 9 0;
#X connect 4 1 8 0;
#X connect 4 2 3 1;
#X connect 5 0 1 1;
#X connect 6 0 7 0;
#X connect 6 1 10 1;
#X connect 6 1 11 0;
#X connect 6 1 28 0;
#X connect 7 0 10 0;
#X connect 8 0 3 0;
#X connect 9 0 2 0;
#X connect 12 0 13 0;
#X connect 13 0 16 0;
#X connect 14 0 17 0;
#X connect 15 0 30 0;
#X connect 16 0 15 1;
#X connect 16 0 25 0;
#X connect 17 0 15 0;
#X connect 18 0 19 0;
#X connect 19 0 26 0;
#X connect 19 1 21 0;
#X connect 20 0 23 0;
#X connect 21 0 22 0;
#X connect 22 0 23 1;
#X connect 23 0 6 0;
#X connect 24 0 13 1;
#X connect 26 0 27 0;
#X connect 27 0 20 0;
#X connect 28 0 4 0;
#X connect 29 0 28 1;
#X connect 30 0 18 0;
#X restore 32 71 pd input;
#N canvas 612 291 304 373 show_ene 0;
#X obj 89 31 inlet;
#X obj 89 55 for 100;
#X obj 89 79 t f f;
#X obj 89 103 tabread enepos;
#X obj 89 127 sel 1;
#X obj 89 151 int;
#X obj 89 337 s control;
#X obj 89 175 t f f;
#X obj 121 200 mod 10;
#X obj 121 224 mod 2;
#X obj 121 248 sel 1;
#X msg 121 277 81;
#X msg 154 276 80;
#X obj 89 309 pack;
#X connect 0 0 1 0;
#X connect 1 0 2 0;
#X connect 2 0 3 0;
#X connect 2 1 5 1;
#X connect 3 0 4 0;
#X connect 4 0 5 0;
#X connect 5 0 7 0;
#X connect 7 0 13 0;
#X connect 7 1 8 0;
#X connect 8 0 9 0;
#X connect 9 0 10 0;
#X connect 10 0 11 0;
#X connect 10 1 12 0;
#X connect 11 0 13 1;
#X connect 12 0 13 1;
#X connect 13 0 6 0;
#X restore 302 636 pd show_ene;
#N canvas 669 304 356 240 shiftdown 0;
#X obj 113 36 inlet;
#X obj 113 60 for 90;
#X obj 113 84 t f f;
#X obj 113 108 + 10;
#X obj 113 132 tabread enepos;
#X obj 113 156 tabwrite enepos;
#X connect 0 0 1 0;
#X connect 1 0 2 0;
#X connect 2 0 3 0;
#X connect 2 1 5 1;
#X connect 3 0 4 0;
#X connect 4 0 5 0;
#X restore 287 386 pd shiftdown;
#X obj 287 361 sel 0;
#N canvas 626 191 724 622 move 0;
#X obj 107 30 inlet;
#X obj 107 102 * 10;
#X obj 107 126 t b f;
#X obj 253 368 +;
#X obj 253 393 tabread enepos;
#X obj 253 200 t f f;
#X obj 253 465 + 1;
#X obj 253 248 moses 9;
#X obj 398 309 moses 1;
#X obj 398 428 +;
#X obj 398 452 tabread enepos;
#X obj 398 476 sel 1;
#X obj 398 524 - 1;
#X obj 398 259 int;
#X obj 107 78 + 3;
#X obj 107 54 for 7;
#X obj 107 174 sel 0;
#X obj 107 321 +;
#X obj 107 345 tabread enepos;
#X obj 107 369 sel 1;
#X obj 107 150 for 8;
#X msg 398 235 bang;
#X obj 253 417 sel 1;
#X obj 107 247 tabread bullet;
#X obj 107 296 int;
#X obj 107 271 sel 0;
#X obj 253 296 tabread bullet;
#X obj 253 345 int;
#X obj 253 320 sel 0;
#X obj 107 222 t f f;
#X obj 253 272 t f f;
#X obj 398 333 t f f;
#X obj 398 357 tabread bullet;
#X obj 398 381 sel 0;
#X obj 398 405 int;
#X obj 107 198 v shippos;
#X obj 253 224 expr shippos + $i1;
#X obj 398 284 expr shippos - $i1;
#X obj 398 548 v shippos;
#X obj 253 489 v shippos;
#X obj 253 441 v shippos;
#X obj 398 500 v shippos;
#X obj 285 561 s shipmoved;
#X obj 156 123 r ship-move-break;
#X obj 155 31 r ship-move-break;
#X obj 215 531 s ship-move-break;
#X obj 107 393 s ship-move-break;
#X connect 0 0 15 0;
#X connect 1 0 2 0;
#X connect 2 0 20 0;
#X connect 2 1 3 1;
#X connect 2 1 17 1;
#X connect 2 1 9 1;
#X connect 3 0 4 0;
#X connect 4 0 22 0;
#X connect 5 0 36 0;
#X connect 5 1 13 1;
#X connect 6 0 39 0;
#X connect 6 0 42 0;
#X connect 7 0 30 0;
#X connect 7 1 21 0;
#X connect 8 1 31 0;
#X connect 9 0 10 0;
#X connect 10 0 11 0;
#X connect 11 0 41 0;
#X connect 11 0 45 0;
#X connect 12 0 38 0;
#X connect 12 0 42 0;
#X connect 13 0 37 0;
#X connect 14 0 1 0;
#X connect 15 0 14 0;
#X connect 16 0 35 0;
#X connect 16 1 5 0;
#X connect 17 0 18 0;
#X connect 18 0 19 0;
#X connect 19 0 46 0;
#X connect 20 0 16 0;
#X connect 21 0 13 0;
#X connect 22 0 40 0;
#X connect 22 0 45 0;
#X connect 22 1 21 0;
#X connect 23 0 25 0;
#X connect 24 0 17 0;
#X connect 25 0 24 0;
#X connect 26 0 28 0;
#X connect 27 0 3 0;
#X connect 28 0 27 0;
#X connect 28 1 21 0;
#X connect 29 0 23 0;
#X connect 29 1 24 1;
#X connect 30 0 26 0;
#X connect 30 1 27 1;
#X connect 31 0 32 0;
#X connect 31 1 34 1;
#X connect 32 0 33 0;
#X connect 33 0 34 0;
#X connect 34 0 9 0;
#X connect 35 0 29 0;
#X connect 36 0 7 0;
#X connect 37 0 8 0;
#X connect 40 0 6 0;
#X connect 41 0 12 0;
#X connect 43 0 20 1;
#X connect 44 0 15 1;
#X restore 269 489 pd move;
#X msg 46 173 5, f 1;
#X msg 31 222 \; enepos const 0 \; bullet const 0;
#N canvas 823 249 450 375 shoot 0;
#X obj 119 126 for 7;
#X obj 119 150 + 3;
#X obj 119 174 * 10;
#X obj 119 198 +;
#X obj 119 222 tabread enepos;
#X obj 119 246 sel 1;
#X obj 119 294 tabwrite bullet;
#X obj 221 179 mod 10;
#X obj 119 7 inlet;
#X obj 119 79 sel 0;
#X obj 119 55 tabread bullet;
#X msg 119 270 30, f 2;
#X obj 119 31 v shippos;
#X obj 221 155 v shippos;
#X obj 119 103 t b b;
#X obj 25 265 s ss-break;
#X obj 163 127 r ss-break;
#X connect 0 0 1 0;
#X connect 1 0 2 0;
#X connect 2 0 3 0;
#X connect 3 0 4 0;
#X connect 4 0 5 0;
#X connect 5 0 11 0;
#X connect 5 0 15 0;
#X connect 7 0 3 1;
#X connect 7 0 6 1;
#X connect 8 0 12 0;
#X connect 9 0 14 0;
#X connect 10 0 9 0;
#X connect 11 0 6 0;
#X connect 12 0 10 0;
#X connect 13 0 7 0;
#X connect 14 0 0 0;
#X connect 14 1 13 0;
#X connect 16 0 0 1;
#X restore 250 523 pd shoot;
#N canvas 922 221 450 300 show_bullet 0;
#X obj 97 30 inlet;
#X obj 97 54 for 8;
#X obj 97 103 t f f;
#X obj 97 129 tabread bullet;
#X obj 97 153 moses 10;
#X obj 97 177 +;
#X obj 97 225 s control;
#X obj 97 78 + 1;
#X msg 97 201 \$1 12;
#X connect 0 0 1 0;
#X connect 1 0 7 0;
#X connect 2 0 3 0;
#X connect 2 1 5 1;
#X connect 3 0 4 0;
#X connect 4 1 5 0;
#X connect 5 0 8 0;
#X connect 7 0 2 0;
#X connect 8 0 6 0;
#X restore 320 612 pd show_bullet;
#X obj 32 43 table bullet 10;
#N canvas 580 217 449 574 bulletmove 0;
#X obj 108 35 inlet;
#X obj 108 87 t f f;
#X obj 108 111 tabread bullet;
#X obj 108 330 t f f;
#X obj 108 405 tabread enepos;
#X msg 219 498 0, f 1;
#X obj 108 455 int;
#X obj 108 479 moses 90;
#X obj 108 528 tabwrite bullet;
#X obj 108 135 sel 0;
#X obj 108 357 +;
#X obj 108 63 + 1;
#X obj 250 497 tabwrite enepos;
#X msg 250 471 0, f 1;
#X obj 108 381 t f f;
#X obj 108 304 + 10;
#X obj 108 159 t f f;
#X obj 108 279 int;
#X obj 108 255 sel 0 1;
#X obj 108 183 +;
#X obj 108 207 t f f;
#X obj 108 231 tabread enepos;
#X obj 108 429 sel 0 1;
#X connect 0 0 11 0;
#X connect 1 0 2 0;
#X connect 1 1 8 1;
#X connect 1 1 19 1;
#X connect 1 1 10 1;
#X connect 2 0 9 0;
#X connect 3 0 10 0;
#X connect 3 1 6 1;
#X connect 4 0 22 0;
#X connect 5 0 8 0;
#X connect 6 0 7 0;
#X connect 7 0 8 0;
#X connect 7 1 5 0;
#X connect 9 1 16 0;
#X connect 10 0 14 0;
#X connect 11 0 1 0;
#X connect 13 0 12 0;
#X connect 14 0 4 0;
#X connect 14 1 12 1;
#X connect 15 0 3 0;
#X connect 16 0 19 0;
#X connect 16 1 17 1;
#X connect 17 0 15 0;
#X connect 18 0 17 0;
#X connect 18 1 13 0;
#X connect 18 1 5 0;
#X connect 19 0 20 0;
#X connect 20 0 21 0;
#X connect 20 1 12 1;
#X connect 21 0 18 0;
#X connect 22 0 6 0;
#X connect 22 1 5 0;
#X connect 22 1 13 0;
#X restore 306 280 pd bulletmove;
#X obj 46 197 v shippos;
#X obj 232 7 r metro;
#X obj 232 35 t b b b b b;
#X obj 287 311 v clock;
#X obj 269 415 v clock;
#X obj 269 463 sel 0;
#N canvas 210 245 996 567 shipmusic 0;
#X obj 150 26 r shipmoved;
#X obj 173 79 counter;
#X obj 173 103 mod 2;
#X obj 94 263 mtof;
#X obj 94 287 t f f;
#X obj 94 336 line~;
#X msg 94 311 \$1 5;
#X obj 93 359 +~;
#X obj 93 384 blsaw~;
#X obj 94 190 random 6;
#X obj 303 256 mtof;
#X obj 303 280 t f f;
#X obj 303 328 line~;
#X msg 303 304 \$1 5;
#X obj 302 354 +~;
#X obj 302 377 blsaw~;
#X obj 303 183 random 6;
#X obj 173 127 sel 0 1;
#X obj 206 276 osc~ 3;
#X obj 207 300 *~ 4;
#X obj 94 239 expr $i1 + rootnote + 24;
#X obj 303 232 expr $i1 + rootnote + 12;
#X obj 92 432 *~;
#X obj 301 428 *~;
#X obj 92 408 vcf~ 4;
#X obj 301 404 vcf~ 4;
#X obj 498 31 inlet;
#X obj 150 50 t b b f;
#X obj 94 214 pentamap;
#X obj 303 207 pentamap;
#X obj 205 341 v freq;
#X obj 630 9 table wave 515;
#X obj 630 35 loadbang;
#X obj 498 57 t f f;
#X obj 498 81 pack;
#X obj 498 144 bulletsound;
#X obj 516 175 bulletsound;
#X obj 534 203 bulletsound;
#X obj 552 236 bulletsound;
#X obj 570 270 bulletsound;
#X obj 588 307 bulletsound;
#X obj 606 343 bulletsound;
#X obj 624 377 bulletsound;
#X obj 498 105 route 0 1 2 3 4 5 6 7;
#X msg 630 60 \; wave sinesum 512 1 0.666666 0.5 0.8 \, normalize;
#X obj 93 498 throw~ spacemusicl;
#X obj 275 500 throw~ spacemusicr;
#X obj 496 419 catch~ bulletmusicl;
#X obj 496 467 throw~ spacemusicl;
#X obj 661 418 catch~ bulletmusicr;
#X obj 661 466 throw~ spacemusicr;
#X obj 184 389 asr~ 10 0 10000;
#X obj 496 443 *~ 0.5;
#X obj 661 442 *~ 0.5;
#X obj 92 456 *~ 0.18;
#X obj 301 451 *~ 0.29;
#X connect 0 0 27 0;
#X connect 1 0 2 0;
#X connect 2 0 17 0;
#X connect 3 0 4 0;
#X connect 3 0 30 0;
#X connect 4 0 6 0;
#X connect 4 1 24 1;
#X connect 5 0 7 0;
#X connect 6 0 5 0;
#X connect 7 0 8 0;
#X connect 8 0 24 0;
#X connect 9 0 28 0;
#X connect 10 0 11 0;
#X connect 10 0 30 0;
#X connect 11 0 13 0;
#X connect 11 1 25 1;
#X connect 12 0 14 0;
#X connect 13 0 12 0;
#X connect 14 0 15 0;
#X connect 15 0 25 0;
#X connect 16 0 29 0;
#X connect 17 0 9 0;
#X connect 17 1 16 0;
#X connect 18 0 19 0;
#X connect 19 0 7 1;
#X connect 19 0 14 1;
#X connect 20 0 3 0;
#X connect 21 0 10 0;
#X connect 22 0 54 0;
#X connect 23 0 55 0;
#X connect 24 0 22 0;
#X connect 25 0 23 0;
#X connect 26 0 33 0;
#X connect 27 0 51 0;
#X connect 27 1 1 0;
#X connect 28 0 20 0;
#X connect 29 0 21 0;
#X connect 32 0 44 0;
#X connect 33 0 34 0;
#X connect 33 1 34 1;
#X connect 34 0 43 0;
#X connect 43 0 35 0;
#X connect 43 1 36 0;
#X connect 43 2 37 0;
#X connect 43 3 38 0;
#X connect 43 4 39 0;
#X connect 43 5 40 0;
#X connect 43 6 41 0;
#X connect 43 7 42 0;
#X connect 47 0 52 0;
#X connect 49 0 53 0;
#X connect 51 0 22 1;
#X connect 51 0 23 1;
#X connect 52 0 48 0;
#X connect 53 0 50 0;
#X connect 54 0 45 0;
#X connect 54 0 46 0;
#X connect 55 0 45 0;
#X connect 55 0 46 0;
#X restore 408 280 pd shipmusic;
#X obj 269 439 mod 8;
#X obj 306 58 t b b;
#X obj 306 83 for 8;
#X obj 362 105 v clock;
#X obj 306 107 t f f;
#X obj 306 155 +;
#X obj 306 179 mod 4;
#X obj 306 203 sel 0;
#X obj 306 227 int;
#X obj 306 131 * 2;
#X obj 306 251 t f f;
#N canvas 818 101 984 719 enemusic 0;
#X obj 201 312 counter;
#X obj 154 337 int;
#X obj 66 511 throw~ spacemusicl;
#X obj 154 386 sel 0;
#X obj 278 48 inlet;
#X obj 298 99 for 10;
#X obj 298 147 for 10;
#X obj 298 195 +;
#X obj 298 245 tabread enepos;
#X obj 298 270 sel 1;
#X obj 298 219 t f f;
#X obj 407 293 int;
#X obj 407 317 t f f b;
#X obj 407 418 pack f f f;
#X obj 474 346 random 2;
#X obj 474 394 +;
#X obj 407 671 enesound;
#X obj 425 644 enesound;
#X obj 443 613 enesound;
#X obj 461 584 enesound;
#X obj 479 560 enesound;
#X obj 497 536 enesound;
#X obj 515 511 enesound;
#X obj 533 486 enesound;
#X obj 407 444 route 1 2 3 4 5 6 7 8;
#X obj 278 72 t b b b b;
#X obj 154 361 + 1;
#X msg 209 257 -1;
#X obj 68 457 catch~ enemusicl;
#X obj 208 486 /~;
#X obj 209 460 catch~ enemusicr;
#X obj 207 514 throw~ spacemusicr;
#X obj 407 393 mod 10;
#X obj 298 123 t b f;
#X obj 298 171 * 10;
#X obj 356 123 r em-break;
#X obj 298 298 s em-break;
#X obj 533 281 random 10;
#X obj 67 483 /~;
#X obj 508 395 int;
#X obj 533 305 - 5;
#X obj 474 370 + 1;
#X obj 649 73 r putene;
#X obj 649 147 - 4;
#X obj 649 121 mod 10;
#X obj 717 122 / 10;
#X obj 717 146 int;
#X obj 649 174 +;
#X obj 649 198 pentamap;
#X obj 649 222 expr $i1 + rootnote;
#X obj 649 368 *~;
#X obj 649 246 mtof;
#X obj 830 174 asr~ 5 0 1000;
#X obj 649 344 blsquare~;
#X obj 649 392 bob~;
#X obj 754 385 loadbang;
#X msg 754 409 2;
#X obj 649 270 t f f;
#X obj 649 318 line~;
#X obj 731 344 * 3;
#X msg 649 294 \$1 5;
#X obj 649 464 *~;
#X obj 789 462 *~;
#X obj 649 97 t f f f f;
#X obj 836 385 LP_PAN;
#X obj 649 488 throw~ spacemusicl;
#X obj 788 488 throw~ spacemusicr;
#X obj 649 418 *~ 0.8;
#X obj 188 416 expr pow($f1 \, 1) + 1;
#X connect 0 0 1 1;
#X connect 1 0 26 0;
#X connect 3 1 68 0;
#X connect 4 0 25 0;
#X connect 5 0 33 0;
#X connect 6 0 34 0;
#X connect 7 0 10 0;
#X connect 8 0 9 0;
#X connect 9 0 11 0;
#X connect 9 0 0 0;
#X connect 9 0 36 0;
#X connect 10 0 8 0;
#X connect 10 1 11 1;
#X connect 11 0 12 0;
#X connect 12 0 32 0;
#X connect 12 1 13 1;
#X connect 12 2 14 0;
#X connect 13 0 24 0;
#X connect 14 0 41 0;
#X connect 15 0 13 2;
#X connect 15 0 39 0;
#X connect 24 0 16 0;
#X connect 24 1 17 0;
#X connect 24 2 18 0;
#X connect 24 3 19 0;
#X connect 24 4 20 0;
#X connect 24 5 21 0;
#X connect 24 6 22 0;
#X connect 24 7 23 0;
#X connect 25 0 1 0;
#X connect 25 1 5 0;
#X connect 25 2 37 0;
#X connect 25 3 27 0;
#X connect 25 3 0 1;
#X connect 26 0 3 0;
#X connect 27 0 1 1;
#X connect 28 0 38 0;
#X connect 29 0 31 0;
#X connect 30 0 29 0;
#X connect 32 0 13 0;
#X connect 33 0 6 0;
#X connect 33 1 7 1;
#X connect 34 0 7 0;
#X connect 35 0 6 1;
#X connect 37 0 40 0;
#X connect 38 0 2 0;
#X connect 39 0 15 1;
#X connect 40 0 15 1;
#X connect 41 0 15 0;
#X connect 42 0 63 0;
#X connect 43 0 47 0;
#X connect 44 0 43 0;
#X connect 45 0 46 0;
#X connect 46 0 47 1;
#X connect 47 0 48 0;
#X connect 48 0 49 0;
#X connect 49 0 51 0;
#X connect 50 0 54 0;
#X connect 51 0 57 0;
#X connect 52 0 50 1;
#X connect 53 0 50 0;
#X connect 54 0 67 0;
#X connect 55 0 56 0;
#X connect 56 0 54 2;
#X connect 57 0 60 0;
#X connect 57 1 59 0;
#X connect 58 0 53 0;
#X connect 59 0 54 1;
#X connect 60 0 58 0;
#X connect 61 0 65 0;
#X connect 62 0 66 0;
#X connect 63 0 44 0;
#X connect 63 1 45 0;
#X connect 63 2 52 0;
#X connect 63 3 64 0;
#X connect 64 0 61 1;
#X connect 64 1 62 1;
#X connect 67 0 61 0;
#X connect 67 0 62 0;
#X connect 68 0 29 1;
#X connect 68 0 38 1;
#X restore 385 384 pd enemusic;
#X obj 287 337 mod 32;
#X obj 232 578 t b b b b b b;
#X obj 267 742 s control;
#X msg 267 717 95 \$1;
#X obj 267 690 v spaceauto;
#X connect 0 0 40 0;
#X connect 1 0 0 1;
#X connect 3 0 4 0;
#X connect 4 0 14 0;
#X connect 4 0 15 0;
#X connect 7 0 6 0;
#X connect 12 0 11 0;
#X connect 12 0 38 0;
#X connect 14 0 20 0;
#X connect 21 0 22 0;
#X connect 22 0 0 0;
#X connect 22 1 16 0;
#X connect 22 2 24 0;
#X connect 22 3 23 0;
#X connect 22 4 28 0;
#X connect 23 0 39 0;
#X connect 24 0 27 0;
#X connect 25 0 13 0;
#X connect 27 0 25 0;
#X connect 28 0 29 0;
#X connect 28 1 30 0;
#X connect 29 0 31 0;
#X connect 30 0 32 1;
#X connect 31 0 36 0;
#X connect 31 1 35 1;
#X connect 32 0 33 0;
#X connect 33 0 34 0;
#X connect 34 0 35 0;
#X connect 35 0 37 0;
#X connect 36 0 32 0;
#X connect 37 0 19 0;
#X connect 37 1 26 0;
#X connect 39 0 12 0;
#X connect 40 0 2 0;
#X connect 40 1 7 0;
#X connect 40 2 43 0;
#X connect 40 3 8 0;
#X connect 40 4 10 0;
#X connect 40 5 17 0;
#X connect 42 0 41 0;
#X connect 43 0 42 0;
#X restore 533 102 pd space;
#X obj 580 518 == 69;
#X obj 580 542 s spaceon;
#X obj 19 536 s space_r;
#X obj 603 322 sel 0;
#X obj 35 611 v rootnote;
#X obj 124 43 r tempo;
#X obj 92 129 metro;
#X obj 114 96 r step;
#X obj 362 633 s step;
#X obj 267 466 ctlin;
#X obj 267 552 sel 127;
#X obj 267 624 pack;
#X msg 267 650 \$2 \$1;
#X obj 92 152 t b b;
#X obj 32 183 s metro;
#X obj 92 212 v clock;
#X obj 603 274 v clock;
#X obj 603 249 r metro;
#X obj 295 520 >= 90;
#X obj 283 490 t f f;
#X obj 267 600 spigot;
#X obj 475 761 s tempo;
#X obj 475 688 +;
#X obj 534 633 s auto;
#X msg 267 576 3, f 1;
#X obj 267 674 s control;
#X obj 603 672 s vol;
#X msg 116 588 1;
#X obj 116 612 s snakeon;
#X obj 124 67 / 4;
#X obj 603 298 mod 8;
#N canvas 515 121 1158 490 mixing 0;
#X obj 57 194 *~;
#X obj 159 195 *~;
#X obj 203 25 r vol;
#X obj 203 49 spigot;
#X obj 248 25 r snakeon;
#X obj 203 73 +;
#X obj 203 145 line~;
#X obj 203 97 clip 0 1.5;
#X msg 203 121 \$1 500;
#X obj 448 183 *~;
#X obj 559 187 *~;
#X obj 591 31 r vol;
#X obj 591 55 spigot;
#X obj 591 79 +;
#X obj 591 151 line~;
#X obj 591 103 clip 0 1.5;
#X obj 636 31 r pongon;
#X msg 591 127 \$1 500;
#X obj 20 106 catch~ snakemusicl;
#X obj 66 131 catch~ snakemusicr;
#X obj 431 105 catch~ pongmusicl;
#X obj 456 131 catch~ pongmusicr;
#X obj 200 418 *~;
#X obj 247 458 dac~;
#X obj 200 394 catch~ finall;
#X obj 312 395 catch~ finalr;
#X obj 312 419 *~;
#X obj 264 254 r duck;
#X obj 56 222 throw~ finall;
#X obj 159 222 throw~ finalr;
#X obj 448 207 throw~ finall;
#X obj 559 211 throw~ finalr;
#X obj 282 365 line~;
#X obj 264 278 t b b;
#X obj 326 305 delay 5;
#X msg 258 329 0.5 5;
#X msg 326 329 1 80;
#X text 180 312 sidechain;
#X obj 399 314 loadbang;
#X msg 399 338 1;
#X obj 782 182 *~;
#X obj 893 186 *~;
#X obj 925 30 r vol;
#X obj 925 54 spigot;
#X obj 925 78 +;
#X obj 925 150 line~;
#X obj 925 102 clip 0 1.5;
#X msg 925 126 \$1 500;
#X obj 782 206 throw~ finall;
#X obj 893 210 throw~ finalr;
#X obj 970 30 r spaceon;
#X obj 765 104 catch~ spacemusicl;
#X obj 790 130 catch~ spacemusicr;
#X obj 373 459 writesf~ 2;
#X msg 506 375 start;
#X msg 506 400 stop;
#X msg 506 348 open -bytes 3 D:\\\\record.wav;
#X connect 0 0 28 0;
#X connect 1 0 29 0;
#X connect 2 0 3 0;
#X connect 3 0 5 0;
#X connect 4 0 3 1;
#X connect 5 0 7 0;
#X connect 6 0 1 1;
#X connect 6 0 0 1;
#X connect 7 0 5 1;
#X connect 7 0 8 0;
#X connect 8 0 6 0;
#X connect 9 0 30 0;
#X connect 10 0 31 0;
#X connect 11 0 12 0;
#X connect 12 0 13 0;
#X connect 13 0 15 0;
#X connect 14 0 9 1;
#X connect 14 0 10 1;
#X connect 15 0 13 1;
#X connect 15 0 17 0;
#X connect 16 0 12 1;
#X connect 17 0 14 0;
#X connect 18 0 0 0;
#X connect 19 0 1 0;
#X connect 20 0 9 0;
#X connect 21 0 10 0;
#X connect 22 0 23 0;
#X connect 22 0 53 0;
#X connect 24 0 22 0;
#X connect 25 0 26 0;
#X connect 26 0 23 1;
#X connect 26 0 53 1;
#X connect 27 0 33 0;
#X connect 32 0 22 1;
#X connect 32 0 26 1;
#X connect 33 0 35 0;
#X connect 33 1 34 0;
#X connect 34 0 36 0;
#X connect 35 0 32 0;
#X connect 36 0 32 0;
#X connect 38 0 39 0;
#X connect 39 0 32 0;
#X connect 40 0 48 0;
#X connect 41 0 49 0;
#X connect 42 0 43 0;
#X connect 43 0 44 0;
#X connect 44 0 46 0;
#X connect 45 0 40 1;
#X connect 45 0 41 1;
#X connect 46 0 44 1;
#X connect 46 0 47 0;
#X connect 47 0 45 0;
#X connect 50 0 43 1;
#X connect 51 0 40 0;
#X connect 52 0 41 0;
#X connect 54 0 53 0;
#X connect 55 0 53 0;
#X connect 56 0 53 0;
#X restore 533 129 pd mixing;
#X msg 35 587 60;
#X obj 666 496 loadbang;
#X obj 680 455 table scale 5;
#X msg 713 566 \; scale 0 0 2 4 7 9;
#X msg 747 607 \; scale 0 0 3 5 7 10;
#X obj 706 691 random 12;
#X obj 706 715 + 55;
#X obj 706 786 v rootnote;
#X msg 706 739 \$1 100;
#X obj 706 763 line 60 1;
#X msg 768 649 \; scale 0 0 2 5 7 10;
#X msg 800 691 \; scale 0 0 3 5 8 10;
#X msg 824 735 \; scale 0 0 2 5 7 9;
#X obj 761 511 sel 0 1 2 3 4;
#X obj 452 598 sel 98 93 94 95 91 92 96 97;
#X text 915 658 dorian;
#X text 851 571 ionion;
#X text 895 611 aeolian;
#X text 943 699 phrygian;
#X text 876 775 mixolydian;
#X obj 761 487 random 5;
#X msg 475 626 10, f 2;
#X msg 498 626 -10;
#X obj 530 669 int;
#X obj 582 713 loadbang;
#X msg 582 737 300;
#X obj 475 736 line;
#X obj 582 761 s tempo;
#X msg 475 712 \$1 300;
#X msg 593 636 0.03;
#X msg 631 635 -0.03;
#X obj 603 370 delay 50;
#X connect 2 0 3 0;
#X connect 3 0 1 0;
#X connect 5 0 12 0;
#X connect 6 0 20 0;
#X connect 6 1 9 1;
#X connect 6 1 10 1;
#X connect 7 0 9 0;
#X connect 8 0 10 0;
#X connect 9 0 8 0;
#X connect 9 0 13 1;
#X connect 10 0 11 0;
#X connect 12 0 13 0;
#X connect 12 1 6 0;
#X connect 13 0 1 0;
#X connect 14 0 27 0;
#X connect 15 0 24 0;
#X connect 15 1 16 1;
#X connect 16 0 17 0;
#X connect 17 0 18 0;
#X connect 20 0 7 0;
#X connect 20 1 11 1;
#X connect 20 2 21 0;
#X connect 20 3 22 1;
#X connect 21 0 22 0;
#X connect 24 0 25 0;
#X connect 25 1 16 0;
#X connect 26 0 15 0;
#X connect 27 0 23 0;
#X connect 27 1 26 0;
#X connect 28 0 34 0;
#X connect 28 1 34 1;
#X connect 29 0 30 0;
#X connect 29 1 30 1;
#X connect 30 0 32 0;
#X connect 31 0 33 0;
#X connect 32 0 31 0;
#X connect 34 0 35 0;
#X connect 35 0 58 0;
#X connect 36 0 37 0;
#X connect 38 0 36 0;
#X connect 38 0 41 0;
#X connect 38 0 62 0;
#X connect 38 1 108 0;
#X connect 39 0 77 0;
#X connect 41 0 42 0;
#X connect 45 0 44 0;
#X connect 45 0 64 0;
#X connect 45 0 43 0;
#X connect 45 0 59 0;
#X connect 45 0 94 0;
#X connect 45 0 89 0;
#X connect 46 0 56 0;
#X connect 46 0 68 0;
#X connect 47 0 1 0;
#X connect 48 0 125 0;
#X connect 48 1 51 0;
#X connect 50 0 49 0;
#X connect 51 0 49 0;
#X connect 52 0 55 0;
#X connect 54 0 46 0;
#X connect 55 0 53 0;
#X connect 56 0 57 0;
#X connect 58 0 52 0;
#X connect 58 1 38 0;
#X connect 59 0 60 0;
#X connect 62 0 63 0;
#X connect 65 0 48 0;
#X connect 67 0 91 0;
#X connect 68 0 75 0;
#X connect 69 0 75 0;
#X connect 71 0 72 0;
#X connect 71 1 81 0;
#X connect 72 0 86 0;
#X connect 72 1 82 0;
#X connect 73 0 74 0;
#X connect 74 0 87 0;
#X connect 75 0 39 0;
#X connect 75 0 76 0;
#X connect 78 0 92 0;
#X connect 79 0 78 0;
#X connect 80 0 82 1;
#X connect 81 0 73 1;
#X connect 81 1 80 0;
#X connect 82 0 73 0;
#X connect 84 0 122 0;
#X connect 84 0 117 0;
#X connect 86 0 82 0;
#X connect 89 0 90 0;
#X connect 91 0 68 1;
#X connect 92 0 65 0;
#X connect 94 0 66 0;
#X connect 95 0 97 0;
#X connect 99 0 100 0;
#X connect 100 0 102 0;
#X connect 102 0 103 0;
#X connect 103 0 101 0;
#X connect 107 0 97 0;
#X connect 107 1 98 0;
#X connect 107 2 104 0;
#X connect 107 3 105 0;
#X connect 107 4 106 0;
#X connect 108 0 70 0;
#X connect 108 1 115 0;
#X connect 108 2 116 0;
#X connect 108 3 85 0;
#X connect 108 4 123 0;
#X connect 108 5 124 0;
#X connect 108 6 114 0;
#X connect 108 7 99 0;
#X connect 114 0 107 0;
#X connect 115 0 84 0;
#X connect 116 0 84 0;
#X connect 117 0 84 1;
#X connect 118 0 119 0;
#X connect 119 0 120 0;
#X connect 119 0 121 0;
#X connect 119 0 84 1;
#X connect 120 0 83 0;
#X connect 122 0 120 0;
#X connect 123 0 88 0;
#X connect 124 0 88 0;
#X connect 125 0 50 0;
