#N canvas 426 341 1112 524 12;
#X obj 139 38 inlet;
#X obj 107 376 *~;
#X obj 162 85 tabread snakepos;
#X obj 106 119 tabread notes;
#X obj 208 122 tabread notesvel;
#X obj 106 318 blsquare~;
#X obj 106 347 *~;
#X obj 106 213 +;
#X obj 78 414 *~;
#X obj 143 414 *~;
#X obj 124 191 v rootnote;
#X obj 106 167 t f b;
#X obj 78 438 outlet~;
#X obj 143 439 outlet~;
#X obj 106 263 line~;
#X obj 107 290 mtof~;
#X obj 208 172 line~;
#X msg 208 146 \$1 5;
#X obj 266 174 sel 1;
#X obj 106 237 pack;
#X obj 266 150 expr snaketurn > 0 && $i1 == 0;
#X obj 139 62 t f f f;
#X obj 199 250 sel 0;
#X msg 231 277 bang;
#X msg 298 198 25, f 2;
#X msg 266 198 200;
#X obj 348 314 LP_PAN;
#X obj 106 143 pentamap;
#X obj 231 301 ahr~ 5 30 70;
#X obj 199 345 ahr~ 5 50 70;
#X connect 0 0 21 0;
#X connect 1 0 8 0;
#X connect 1 0 9 0;
#X connect 2 0 3 0;
#X connect 2 0 4 0;
#X connect 2 0 26 0;
#X connect 3 0 27 0;
#X connect 4 0 17 0;
#X connect 5 0 6 0;
#X connect 6 0 1 0;
#X connect 7 0 19 0;
#X connect 8 0 12 0;
#X connect 9 0 13 0;
#X connect 10 0 7 1;
#X connect 11 0 7 0;
#X connect 11 1 10 0;
#X connect 14 0 15 0;
#X connect 15 0 5 0;
#X connect 16 0 6 1;
#X connect 17 0 16 0;
#X connect 18 0 25 0;
#X connect 18 1 24 0;
#X connect 19 0 14 0;
#X connect 20 0 18 0;
#X connect 21 0 22 0;
#X connect 21 1 2 0;
#X connect 21 2 20 0;
#X connect 22 0 29 0;
#X connect 22 1 23 0;
#X connect 23 0 28 0;
#X connect 24 0 19 1;
#X connect 25 0 19 1;
#X connect 26 0 8 1;
#X connect 26 1 9 1;
#X connect 27 0 11 0;
#X connect 28 0 1 1;
#X connect 29 0 1 1;
